# Blender 4.4.3
# www.blender.org
o Sphere
v 0.000000 0.545273 0.032839
v -0.056834 0.005977 0.000833
v 0.000000 -0.545273 0.032839
v 0.000000 -0.771132 0.000000
v 0.247894 0.545273 -0.128920
v 0.283747 -0.015247 -0.194001
v 0.247894 -0.545273 -0.128920
v 0.153207 0.545273 0.337516
v 0.216667 0.000000 0.477320
v 0.153207 -0.545273 0.337516
v 0.000000 0.771132 0.000000
v -0.153207 0.545273 0.337516
v -0.216667 0.000000 0.477320
v -0.153207 -0.545273 0.337516
v -0.247894 0.545273 -0.128920
v -0.242474 0.019506 -0.212649
v -0.247894 -0.545273 -0.128920
vn 0.0552 -0.0313 -0.9980
vn 0.1083 0.0002 -0.9941
vn 0.0530 0.0316 -0.9981
vn -0.0000 -0.8533 -0.5215
vn 0.5362 0.3977 -0.7445
vn 0.8055 -0.0024 -0.5926
vn 0.5334 -0.4019 -0.7442
vn 0.6666 0.5266 0.5276
vn 0.7952 -0.0011 0.6063
vn 0.6652 -0.5276 0.5284
vn -0.0000 0.8533 -0.5215
vn -0.6841 0.5141 0.5174
vn -0.8157 0.0009 0.5785
vn -0.6850 -0.5134 0.5168
vn -0.4830 0.3740 -0.7917
vn -0.7495 0.0027 -0.6620
vn -0.4844 -0.3703 -0.7926
vt 0.600000 0.500000
vt 0.600000 0.750000
vt 0.400000 0.750000
vt 0.400000 0.500000
vt 0.600000 0.250000
vt 0.400000 0.250000
vt 0.500000 1.000000
vt 0.500000 0.000000
vt 0.200000 0.500000
vt 0.200000 0.250000
vt 0.300000 1.000000
vt 0.200000 0.750000
vt 0.300000 0.000000
vt 0.000000 0.500000
vt 0.000000 0.250000
vt 0.100000 1.000000
vt 0.000000 0.750000
vt 0.100000 0.000000
vt 1.000000 0.500000
vt 1.000000 0.750000
vt 0.800000 0.750000
vt 0.800000 0.500000
vt 1.000000 0.250000
vt 0.800000 0.250000
vt 0.900000 1.000000
vt 0.900000 0.000000
vt 0.700000 0.000000
vt 0.700000 1.000000
s 1
f 2/1/2 1/2/1 5/3/5 6/4/6
f 3/5/3 2/1/2 6/4/6 7/6/7
f 1/2/1 11/7/11 5/3/5
f 4/8/4 3/5/3 7/6/7
f 7/6/7 6/4/6 9/9/9 10/10/10
f 5/3/5 11/11/11 8/12/8
f 4/13/4 7/6/7 10/10/10
f 6/4/6 5/3/5 8/12/8 9/9/9
f 10/10/10 9/9/9 13/14/13 14/15/14
f 8/12/8 11/16/11 12/17/12
f 4/18/4 10/10/10 14/15/14
f 9/9/9 8/12/8 12/17/12 13/14/13
f 13/19/13 12/20/12 15/21/15 16/22/16
f 14/23/14 13/19/13 16/22/16 17/24/17
f 12/20/12 11/25/11 15/21/15
f 4/26/4 14/23/14 17/24/17
f 4/27/4 17/24/17 3/5/3
f 16/22/16 15/21/15 1/2/1 2/1/2
f 17/24/17 16/22/16 2/1/2 3/5/3
f 15/21/15 11/28/11 1/2/1
