# Blender 4.2.3 LTS
# www.blender.org
mtllib ground.mtl
o Abandoned_House.002
v -53.000031 0.000006 73.551857
v 67.653290 0.837719 73.551857
v -55.137520 -2.655073 -27.449148
v 67.653290 -0.398937 -27.449240
v -53.000031 0.000000 2.510220
v 67.653290 -1.747446 2.510220
v -52.983326 0.016603 38.031036
v 67.653290 -0.733522 38.031036
v 21.666695 0.027284 73.551857
v 21.666695 -0.727008 38.031036
v 21.666695 -0.367890 2.510220
v 21.666695 -0.000002 -27.449240
v -15.666668 1.165718 73.551857
v -15.666668 0.744376 38.031036
v -15.666668 -0.199966 2.510220
v -15.666668 0.384512 -27.449240
v -53.000031 -0.069460 49.871311
v -15.666668 0.996372 49.871311
v 21.666695 0.030749 49.871311
v 67.653290 0.000004 49.871311
v -53.000031 0.435643 61.711582
v -15.666668 0.435643 61.711582
v 21.666695 -1.449494 61.711582
v 67.653290 0.415370 61.711582
v -53.000031 0.000001 14.350492
v -15.666668 -0.091006 14.350492
v 21.666695 -0.448779 14.350492
v 67.653290 -1.699960 14.350492
v -53.000031 0.000002 26.190765
v -15.666668 -0.268741 26.190765
v 21.666695 0.111552 26.190765
v 67.653290 -1.397770 26.190765
v -53.000031 -0.895190 -21.170326
v -15.666668 -0.280700 -21.170326
v 21.666695 -0.367892 -21.170326
v 67.653290 -1.067502 -21.170326
v -53.000031 -0.307398 -9.330055
v -15.666668 -0.153056 -9.330055
v 21.666695 -0.367891 -9.330055
v 67.653290 -0.932240 -9.330055
v -28.111124 2.558630 73.551857
v -28.111124 1.268654 61.711582
v -28.111124 -0.684232 49.871311
v -28.111124 1.348042 38.031036
v -28.111124 -0.009825 26.190765
v -28.111124 -0.051532 14.350492
v -28.111124 -0.583462 2.510220
v -28.111124 -0.364013 -9.330055
v -28.111124 -0.245784 -21.170322
v -28.111124 0.817192 -27.449240
v -40.555580 1.165718 73.551857
v -40.555580 1.268654 61.711582
v -40.555580 -0.109082 49.871311
v -40.555580 0.251114 38.031036
v -40.555580 0.000002 26.190765
v -40.555580 0.000001 14.350492
v -40.555580 -0.199966 2.510220
v -40.555580 -1.041090 -9.330055
v -40.555580 -0.973137 -21.170322
v -40.555580 -0.508454 -27.449240
v 9.222239 0.955405 73.551857
v 9.222239 0.324998 61.711582
v 9.222239 0.324997 49.871311
v 9.222239 0.324996 38.031036
v 9.222239 0.661551 26.190765
v 9.222239 -0.534078 14.350492
v 9.222239 -0.367890 2.510220
v 9.222239 -0.367891 -9.330055
v 9.222239 -1.236857 -21.170322
v 12.113985 0.738854 -27.449268
v -3.222214 0.328078 73.551857
v -3.222214 -0.723982 61.711582
v -3.222214 -0.382445 49.871311
v -3.222214 0.187237 38.031036
v -3.222214 -0.536026 26.190765
v -3.222214 -0.056906 14.350492
v -3.222214 -0.064304 2.510220
v -3.222214 -0.064021 -9.330055
v -3.222214 -0.033863 -21.170322
v -3.222215 -0.000002 -27.449240
v 46.555607 0.080673 73.551857
v 46.555607 -0.661510 61.711582
v 46.555607 -0.300790 49.871311
v 46.555607 0.031448 38.031036
v 46.555607 -0.224770 26.190765
v 46.555607 0.215915 14.350492
v 46.555607 0.237225 2.510220
v 46.555607 -0.493330 -9.330055
v 46.555607 -2.343063 -21.170322
v 46.555607 -1.161768 -27.449240
v 34.111153 -0.875956 73.551857
v 34.111153 -1.438571 61.711582
v 34.111153 0.003424 49.871311
v 34.111153 0.232009 38.031036
v 34.111153 -0.111406 26.190765
v 34.111153 -0.022375 14.350492
v 34.111153 -0.285214 2.510220
v 34.111153 -0.037613 -9.330055
v 34.111153 -0.123396 -21.170322
v 34.111153 0.253669 -27.449240
v -55.137520 -2.678251 -35.862057
v -43.928936 1.513757 -42.103432
v -32.720352 0.965796 -42.929249
v -21.511766 -2.590184 -39.454941
v -10.303185 -2.456154 -35.810974
v 0.905398 -0.021440 -35.810974
v 12.113985 1.905620 -37.837425
v 23.322565 0.961832 -35.810974
v 34.531151 0.961832 -35.810974
v 45.739738 0.194474 -35.810974
v 65.601547 -2.070880 -35.810974
v -55.137520 -2.852869 -47.762184
v -43.928936 -0.558507 -50.609196
v -32.720352 1.022517 -47.762184
v -21.511766 0.958324 -47.762184
v -10.303185 1.487347 -47.762184
v 0.905398 1.952599 -47.762184
v 12.113985 4.649284 -47.762184
v 23.322565 3.544959 -47.762184
v 34.531151 0.889821 -47.762184
v 45.739738 1.809433 -47.762184
v 65.601547 -0.021441 -47.762184
v -55.137520 -2.793999 -59.713402
v -43.928936 -1.307343 -59.713402
v -32.720352 -0.448902 -59.713402
v -21.511766 4.685500 -59.713402
v -10.303185 4.116256 -59.713402
v 0.905398 2.180326 -59.713402
v 12.113985 4.649284 -59.713402
v 23.322565 4.573619 -59.713402
v 34.531151 4.586005 -59.713402
v 45.739738 4.649284 -59.713402
v 65.601547 1.952598 -59.713402
v -55.137520 -2.504714 -71.664612
v -43.928936 -0.713390 -71.664612
v -32.720352 0.652739 -71.664612
v -21.511766 3.827612 -71.664612
v -10.303185 1.919320 -71.664612
v 0.905398 1.326006 -71.664612
v 12.113985 2.011470 -71.664612
v 23.322565 1.952598 -71.664612
v 34.531151 4.649283 -71.664612
v 45.739738 4.649283 -71.664612
v 65.601547 1.952598 -71.664612
v -55.137520 -2.504715 -83.615822
v -43.928936 -0.713391 -83.615822
v -32.720352 0.487223 -83.615822
v -21.511766 2.310064 -83.615822
v -10.303185 1.802494 -83.615822
v 0.905398 -0.596637 -83.615822
v 12.113985 0.326714 -83.615822
v 23.322565 1.952597 -83.615822
v 34.531151 1.952597 -83.615822
v 45.739738 1.952597 -83.615822
v 65.601547 -0.021443 -83.615822
v -55.137520 -2.794002 -95.567039
v -43.928936 -1.592268 -95.567039
v -32.720352 -0.713392 -95.567039
v -21.511766 0.775043 -95.567039
v -10.303185 0.932292 -95.567039
v 0.905398 0.181919 -95.567039
v 12.113985 2.297737 -95.567039
v 23.322565 4.649281 -95.567039
v 34.531151 4.649281 -95.567039
v 45.739738 1.952596 -95.567039
v 65.601547 -2.070884 -95.567039
v -55.137520 -1.592269 -107.518242
v -43.928936 -0.713393 -107.518242
v -32.720352 -0.713393 -107.518242
v -21.511766 -0.713393 -107.518242
v -10.303185 1.648540 -107.518242
v 0.905398 1.530155 -107.518242
v 12.113985 2.011467 -107.518242
v 23.322565 4.649280 -107.518242
v 34.531151 4.717720 -107.518242
v 45.739738 2.068926 -107.518242
v 65.601547 -2.070884 -107.518242
v -55.137520 -0.713394 -119.469460
v -43.928936 0.487219 -119.469460
v -32.720352 0.487219 -119.469460
v -21.511766 -0.586522 -119.469460
v -10.303185 2.420725 -119.469460
v 0.905398 2.263667 -119.469460
v 12.113985 0.094886 -119.469460
v 23.322565 1.952595 -119.469460
v 34.531151 4.553371 -119.469460
v 45.739738 2.285545 -119.469460
v 65.601547 -2.720647 -119.469460
v -55.137520 -0.713395 -131.420670
v -43.928936 0.487218 -131.420670
v -32.720352 0.487218 -131.420670
v -21.511766 -0.586523 -131.420670
v -10.303185 2.420724 -131.420670
v 0.905398 2.072568 -131.420670
v 12.113985 -2.585788 -131.420670
v 23.322565 -1.921668 -131.420670
v 34.531151 3.703909 -131.420670
v 45.739738 2.227873 -131.420670
v 65.601547 -2.718016 -131.420670
v -55.137520 -1.592272 -143.371887
v -43.928936 -0.713396 -143.371887
v -32.720352 -0.713396 -143.371887
v -21.511766 -1.592272 -143.371887
v -10.303185 -0.389395 -143.371887
v 0.905398 -0.448266 -143.371887
v 12.113985 -2.852876 -143.371887
v 23.322565 -2.703659 -143.371887
v 34.531151 2.921918 -143.371887
v 45.739738 2.095645 -143.371887
v 65.601547 -2.718017 -143.371887
v -52.913765 -8.515971 73.581406
v 67.739555 -7.678258 73.581406
v -55.051254 -11.171050 -27.419601
v 67.739555 -8.914914 -27.419693
v -52.913765 -8.515977 2.539768
v 67.739555 -10.263423 2.539768
v -52.897060 -8.499374 38.060585
v 67.739555 -9.249499 38.060585
v 21.752962 -8.488693 73.581406
v 21.752962 -9.242985 38.060585
v 21.752962 -8.883867 2.539768
v 21.752962 -8.515979 -27.419693
v -15.580400 -7.350259 73.581406
v -15.580400 -7.771601 38.060585
v -15.580400 -8.715943 2.539768
v -15.580400 -8.131465 -27.419693
v -52.913765 -8.585437 49.900860
v -15.580400 -7.519605 49.900860
v 21.752962 -8.485229 49.900860
v 67.739555 -8.515973 49.900860
v -52.913765 -8.080334 61.741131
v -15.580400 -8.080334 61.741131
v 21.752962 -9.965471 61.741131
v 67.739555 -8.100607 61.741131
v -52.913765 -8.515976 14.380040
v -15.580400 -8.606983 14.380040
v 21.752962 -8.964756 14.380040
v 67.739555 -10.215937 14.380040
v -52.913765 -8.515975 26.220312
v -15.580400 -8.784718 26.220312
v 21.752962 -8.404425 26.220312
v 67.739555 -9.913747 26.220312
v -52.913765 -9.411167 -21.140779
v -15.580400 -8.796677 -21.140779
v 21.752962 -8.883869 -21.140779
v 67.739555 -9.583480 -21.140779
v -52.913765 -8.823375 -9.300507
v -15.580400 -8.669033 -9.300507
v 21.752962 -8.883868 -9.300507
v 67.739555 -9.448216 -9.300507
v -28.024857 -5.957347 73.581406
v -28.024857 -7.247323 61.741131
v -28.024857 -9.200209 49.900860
v -28.024857 -7.167935 38.060585
v -28.024857 -8.525802 26.220312
v -28.024857 -8.567509 14.380040
v -28.024857 -9.099439 2.539768
v -28.024857 -8.879990 -9.300507
v -28.024857 -8.761761 -21.140776
v -28.024857 -7.698785 -27.419693
v -40.469315 -7.350259 73.581406
v -40.469315 -7.247323 61.741131
v -40.469315 -8.625059 49.900860
v -40.469315 -8.264863 38.060585
v -40.469315 -8.515975 26.220312
v -40.469315 -8.515976 14.380040
v -40.469315 -8.715943 2.539768
v -40.469315 -9.557067 -9.300507
v -40.469315 -9.489114 -21.140776
v -40.469315 -9.024431 -27.419693
v 9.308506 -7.560572 73.581406
v 9.308506 -8.190979 61.741131
v 9.308506 -8.190980 49.900860
v 9.308506 -8.190981 38.060585
v 9.308506 -7.854426 26.220312
v 9.308506 -9.050055 14.380040
v 9.308506 -8.883867 2.539768
v 9.308506 -8.883868 -9.300507
v 9.308506 -9.752834 -21.140776
v 12.200253 -7.777123 -27.419722
v -3.135947 -8.187900 73.581406
v -3.135947 -9.239959 61.741131
v -3.135947 -8.898422 49.900860
v -3.135947 -8.328740 38.060585
v -3.135947 -9.052003 26.220312
v -3.135947 -8.572883 14.380040
v -3.135947 -8.580281 2.539768
v -3.135947 -8.579998 -9.300507
v -3.135947 -8.549840 -21.140776
v -3.135947 -8.515979 -27.419693
v 46.641872 -8.435305 73.581406
v 46.641872 -9.177487 61.741131
v 46.641872 -8.816767 49.900860
v 46.641872 -8.484529 38.060585
v 46.641872 -8.740747 26.220312
v 46.641872 -8.300062 14.380040
v 46.641872 -8.278752 2.539768
v 46.641872 -9.009307 -9.300507
v 46.641872 -10.859039 -21.140776
v 46.641872 -9.677745 -27.419693
v 34.197418 -9.391933 73.581406
v 34.197418 -9.954548 61.741131
v 34.197418 -8.512553 49.900860
v 34.197418 -8.283968 38.060585
v 34.197418 -8.627383 26.220312
v 34.197418 -8.538352 14.380040
v 34.197418 -8.801191 2.539768
v 34.197418 -8.553590 -9.300507
v 34.197418 -8.639373 -21.140776
v 34.197418 -8.262308 -27.419693
v -55.051254 -11.194228 -35.832508
v -43.842670 -7.002220 -42.073883
v -32.634087 -7.550181 -42.899700
v -21.425499 -11.106161 -39.425392
v -10.216918 -10.972131 -35.781425
v 0.991665 -8.537416 -35.781425
v 12.200253 -6.610357 -37.807877
v 23.408833 -7.554145 -35.781425
v 34.617416 -7.554145 -35.781425
v 45.826004 -8.321503 -35.781425
v 65.687813 -10.586857 -35.781425
v -55.051254 -11.368846 -47.732635
v -43.842670 -9.074484 -50.579647
v -32.634087 -7.493460 -47.732635
v -21.425499 -7.557652 -47.732635
v -10.216918 -7.028630 -47.732635
v 0.991665 -6.563378 -47.732635
v 12.200253 -3.866692 -47.732635
v 23.408833 -4.971018 -47.732635
v 34.617416 -7.626156 -47.732635
v 45.826004 -6.706544 -47.732635
v 65.687813 -8.537417 -47.732635
v -55.051254 -11.309977 -59.683853
v -43.842670 -9.823320 -59.683853
v -32.634087 -8.964880 -59.683853
v -21.425499 -3.830477 -59.683853
v -10.216918 -4.399721 -59.683853
v 0.991665 -6.335651 -59.683853
v 12.200253 -3.866693 -59.683853
v 23.408833 -3.942358 -59.683853
v 34.617416 -3.929972 -59.683853
v 45.826004 -3.866693 -59.683853
v 65.687813 -6.563378 -59.683853
v -55.051254 -11.020692 -71.635063
v -43.842670 -9.229367 -71.635063
v -32.634087 -7.863238 -71.635063
v -21.425499 -4.688365 -71.635063
v -10.216918 -6.596657 -71.635063
v 0.991665 -7.189971 -71.635063
v 12.200253 -6.504507 -71.635063
v 23.408833 -6.563379 -71.635063
v 34.617416 -3.866694 -71.635063
v 45.826004 -3.866694 -71.635063
v 65.687813 -6.563379 -71.635063
v -55.051254 -11.020693 -83.586273
v -43.842670 -9.229368 -83.586273
v -32.634087 -8.028754 -83.586273
v -21.425499 -6.205913 -83.586273
v -10.216918 -6.713483 -83.586273
v 0.991665 -9.112615 -83.586273
v 12.200253 -8.189263 -83.586273
v 23.408833 -6.563380 -83.586273
v 34.617416 -6.563380 -83.586273
v 45.826004 -6.563380 -83.586273
v 65.687813 -8.537420 -83.586273
v -55.051254 -11.309979 -95.537491
v -43.842670 -10.108246 -95.537491
v -32.634087 -9.229369 -95.537491
v -21.425499 -7.740934 -95.537491
v -10.216918 -7.583685 -95.537491
v 0.991665 -8.334059 -95.537491
v 12.200253 -6.218240 -95.537491
v 23.408833 -3.866696 -95.537491
v 34.617416 -3.866696 -95.537491
v 45.826004 -6.563381 -95.537491
v 65.687813 -10.586862 -95.537491
v -55.051254 -10.108247 -107.488693
v -43.842670 -9.229370 -107.488693
v -32.634087 -9.229370 -107.488693
v -21.425499 -9.229370 -107.488693
v -10.216918 -6.867437 -107.488693
v 0.991665 -6.985822 -107.488693
v 12.200253 -6.504510 -107.488693
v 23.408833 -3.866697 -107.488693
v 34.617416 -3.798257 -107.488693
v 45.826004 -6.447051 -107.488693
v 65.687813 -10.586862 -107.488693
v -55.051254 -9.229370 -119.439911
v -43.842670 -8.028757 -119.439911
v -32.634087 -8.028757 -119.439911
v -21.425499 -9.102498 -119.439911
v -10.216918 -6.095252 -119.439911
v 0.991665 -6.252310 -119.439911
v 12.200253 -8.421090 -119.439911
v 23.408833 -6.563382 -119.439911
v 34.617416 -3.962606 -119.439911
v 45.826004 -6.230432 -119.439911
v 65.687813 -11.236624 -119.439911
v -55.051254 -9.229371 -131.391129
v -43.842670 -8.028758 -131.391129
v -32.634087 -8.028758 -131.391129
v -21.425499 -9.102499 -131.391129
v -10.216918 -6.095253 -131.391129
v 0.991665 -6.443409 -131.391129
v 12.200253 -11.101765 -131.391129
v 23.408833 -10.437645 -131.391129
v 34.617416 -4.812068 -131.391129
v 45.826004 -6.288104 -131.391129
v 65.687813 -11.233993 -131.391129
v -55.051254 -10.108249 -143.342346
v -43.842670 -9.229372 -143.342346
v -32.634087 -9.229372 -143.342346
v -21.425499 -10.108249 -143.342346
v -10.216918 -8.905372 -143.342346
v 0.991665 -8.964242 -143.342346
v 12.200253 -11.368853 -143.342346
v 23.408833 -11.219636 -143.342346
v 34.617416 -5.594059 -143.342346
v 45.826004 -6.420332 -143.342346
v 65.687813 -11.233994 -143.342346
vn 0.6628 -0.7470 -0.0517
vn 0.8159 -0.5361 -0.2166
vn 0.0791 -0.9967 -0.0201
vn 0.0406 -0.9992 0.0059
vn 0.7093 -0.7049 0.0030
vn 0.6997 -0.7141 0.0204
vn -0.0128 -0.9995 0.0285
vn -0.0070 -0.9999 0.0103
vn 0.7236 -0.6899 0.0215
vn 0.7124 -0.7017 -0.0027
vn 0.0205 -0.9997 -0.0101
vn 0.0094 -0.9996 0.0250
vn -0.0251 -0.9992 -0.0327
vn -0.0128 -0.9999 -0.0040
vn 0.0085 -1.0000 0.0008
vn 0.0089 -0.9987 -0.0500
vn 0.0101 -0.9999 -0.0033
vn 0.0176 -0.9998 0.0070
vn 0.0161 -0.9999 0.0039
vn 0.0034 -0.9997 0.0228
vn 0.0134 -0.9921 -0.1245
vn -0.0623 -0.9939 -0.0907
vn -0.0717 -0.9971 -0.0269
vn 0.0456 -0.9978 -0.0477
vn -0.0256 -0.9995 -0.0170
vn -0.0256 -0.9994 0.0212
vn -0.0058 -0.9999 0.0130
vn -0.0187 -0.9996 -0.0225
vn 0.0134 -0.9999 0.0047
vn -0.0100 -0.9999 -0.0009
vn -0.0013 -1.0000 0.0002
vn -0.0002 -1.0000 -0.0004
vn -0.0121 -0.9953 -0.0958
vn -0.0114 -0.9944 -0.1053
vn -0.0334 -0.9985 -0.0428
vn 0.0147 -0.9990 -0.0434
vn 0.7217 -0.6920 0.0198
vn 0.0363 -0.9974 0.0616
vn -0.0592 -0.9972 0.0451
vn -0.0110 -0.9997 0.0233
vn -0.0567 -0.9984 -0.0028
vn 0.0130 -0.9998 -0.0145
vn 0.6038 -0.5393 -0.5871
vn 0.0484 -0.7092 -0.7034
vn -0.0618 -0.7285 -0.6822
vn -0.0046 -0.7203 -0.6936
vn -0.0532 -0.7360 -0.6748
vn 0.0121 -0.7159 -0.6981
vn 0.7127 -0.7015 0.0035
vn 0.0126 -0.9997 0.0202
vn 0.0100 -0.9997 0.0230
vn -0.0222 -0.9991 0.0348
vn 0.0075 -1.0000 0.0005
vn -0.0113 -0.9999 0.0059
vn 0.6956 -0.7180 0.0253
vn -0.0005 -0.9998 0.0222
vn -0.0156 -0.9998 0.0094
vn 0.0134 -0.9999 -0.0022
vn -0.0161 -0.9996 0.0237
vn 0.0186 -0.9998 0.0075
vn -0.0123 -0.7540 -0.6567
vn -0.0058 -0.9965 0.0836
vn 0.0184 -0.9998 0.0059
vn 0.0183 -0.9998 -0.0019
vn -0.0014 -0.9992 0.0409
vn -0.0045 -0.9999 0.0135
vn 0.0080 -0.9998 0.0182
vn 0.0248 -0.9997 0.0019
vn 0.0122 -0.9977 -0.0663
vn 0.0314 -0.9912 -0.1285
vn -0.0152 -0.7483 -0.6632
vn -0.0133 -0.9997 0.0208
vn -0.0081 -0.9998 -0.0172
vn -0.0077 -1.0000 -0.0063
vn -0.0001 -0.9998 0.0177
vn -0.0044 -0.9998 0.0218
vn -0.0131 -0.9999 -0.0043
vn -0.0125 -0.9998 0.0180
vn -0.0461 -0.9968 -0.0649
vn -0.0035 -0.9845 -0.1756
vn 0.0411 -0.7280 -0.6844
vn 0.0364 -0.9993 0.0084
vn -0.6900 -0.7235 0.0187
vn -0.5624 -0.6071 -0.5614
vn -0.0026 -0.9998 -0.0216
vn -0.6967 -0.7173 0.0072
vn -0.0258 -0.9995 0.0159
vn -0.7143 -0.6996 0.0197
vn -0.7277 -0.6858 0.0115
vn -0.0336 -0.9993 0.0162
vn -0.7346 -0.6785 -0.0015
vn -0.0329 -0.9994 0.0082
vn -0.0270 -0.9995 0.0182
vn -0.7375 -0.6754 -0.0011
vn -0.7017 -0.7119 0.0280
vn -0.0342 -0.9986 0.0413
vn -0.7067 -0.7075 0.0048
vn -0.0840 -0.9952 -0.0499
vn -0.0230 -0.9911 -0.1312
vn -0.6595 -0.7437 -0.1093
vn 0.7813 -0.6198 -0.0742
vn 0.8004 -0.5992 -0.0205
vn 0.1434 -0.9887 0.0427
vn 0.1033 -0.9900 -0.0966
vn -0.0371 -0.9987 -0.0353
vn -0.0938 -0.9926 0.0774
vn -0.0559 -0.9954 -0.0777
vn -0.0870 -0.9682 0.2345
vn -0.0086 -0.9990 -0.0434
vn 0.1060 -0.9905 -0.0879
vn 0.0901 -0.9864 0.1376
vn 0.0366 -0.9872 -0.1550
vn 0.0227 -0.9963 -0.0834
vn -0.0591 -0.9882 -0.1413
vn -0.0339 -0.9934 -0.1096
vn -0.0468 -0.9941 -0.0979
vn -0.0388 -0.9933 -0.1088
vn -0.0613 -0.9945 -0.0845
vn -0.0544 -0.9965 -0.0637
vn -0.7381 -0.6719 0.0610
vn -0.7084 -0.6809 0.1860
vn 0.7979 -0.6011 0.0464
vn 0.1506 -0.9830 0.1050
vn 0.0507 -0.9987 0.0014
vn 0.0541 -0.9732 -0.2236
vn 0.0384 -0.9695 -0.2421
vn 0.1182 -0.9823 -0.1456
vn 0.0745 -0.9896 -0.1230
vn -0.0870 -0.9855 -0.1457
vn -0.0467 -0.9866 -0.1560
vn -0.0431 -0.9813 -0.1876
vn -0.7397 -0.6627 -0.1170
vn 0.7670 -0.6417 -0.0001
vn 0.1236 -0.9923 0.0072
vn 0.1857 -0.9826 -0.0096
vn 0.1139 -0.9919 -0.0566
vn -0.0735 -0.9968 -0.0315
vn 0.0475 -0.9982 0.0370
vn 0.0769 -0.9940 0.0774
vn -0.0137 -0.9997 0.0216
vn 0.0110 -0.9959 -0.0898
vn -0.0473 -0.9898 -0.1341
vn -0.7296 -0.6806 -0.0677
vn 0.7595 -0.6504 -0.0121
vn 0.1287 -0.9914 -0.0251
vn 0.1965 -0.9805 0.0014
vn 0.0887 -0.9937 0.0680
vn -0.1148 -0.9882 0.1009
vn -0.0087 -0.9919 0.1264
vn 0.0689 -0.9871 0.1446
vn 0.0753 -0.9892 0.1260
vn 0.0607 -0.9922 0.1091
vn -0.0627 -0.9943 0.0865
vn -0.7303 -0.6798 0.0668
vn 0.7575 -0.6526 0.0161
vn 0.1240 -0.9916 0.0355
vn 0.1423 -0.9874 0.0688
vn 0.0606 -0.9942 0.0887
vn -0.0984 -0.9931 0.0643
vn -0.0163 -0.9994 0.0309
vn 0.1113 -0.9936 -0.0201
vn 0.0900 -0.9942 -0.0581
vn -0.0000 -1.0000 -0.0000
vn -0.0838 -0.9926 0.0874
vn -0.7489 -0.6562 0.0921
vn 0.7626 -0.6467 -0.0121
vn 0.0892 -0.9960 0.0028
vn 0.0861 -0.9947 0.0564
vn 0.0773 -0.9940 0.0770
vn -0.0206 -0.9997 0.0125
vn 0.0177 -0.9980 -0.0604
vn 0.1598 -0.9836 -0.0840
vn 0.0978 -0.9902 -0.0998
vn -0.0878 -0.9924 -0.0865
vn -0.1619 -0.9868 -0.0099
vn -0.7804 -0.6247 0.0257
vn 0.7395 -0.6706 -0.0584
vn 0.0559 -0.9954 -0.0774
vn 0.0144 -0.9994 -0.0326
vn 0.0909 -0.9959 0.0015
vn 0.0742 -0.9965 -0.0379
vn -0.0026 -0.9993 -0.0361
vn 0.1152 -0.9919 0.0532
vn 0.1337 -0.9879 0.0787
vn -0.0824 -0.9963 0.0257
vn -0.2165 -0.9763 0.0022
vn -0.7703 -0.6377 0.0044
vn 0.7371 -0.6752 -0.0295
vn 0.0497 -0.9977 -0.0466
vn -0.0358 -0.9986 -0.0389
vn 0.0885 -0.9959 -0.0207
vn 0.1151 -0.9931 -0.0213
vn -0.0996 -0.9947 0.0250
vn -0.0170 -0.9875 0.1567
vn 0.1938 -0.9624 0.1903
vn 0.0206 -0.9957 0.0904
vn -0.2128 -0.9771 0.0075
vn -0.7875 -0.6163 0.0064
vn 0.7371 -0.6752 0.0295
vn 0.0497 -0.9977 0.0466
vn -0.0455 -0.9978 0.0479
vn 0.0663 -0.9957 0.0652
vn 0.1012 -0.9902 0.0967
vn -0.1567 -0.9813 0.1119
vn -0.1107 -0.9850 0.1326
vn 0.2359 -0.9605 0.1475
vn 0.1355 -0.9864 0.0932
vn -0.1920 -0.9814 0.0056
vn -0.7845 -0.6201 0.0024
vn 0.6060 -0.5198 0.6021
vn 0.0316 -0.6803 0.7323
vn -0.0296 -0.6794 0.7331
vn 0.0310 -0.6345 0.7723
vn 0.0549 -0.6460 0.7614
vn -0.1085 -0.6572 0.7458
vn -0.0861 -0.6393 0.7642
vn 0.1524 -0.6000 0.7854
vn 0.1341 -0.7214 0.6795
vn -0.1144 -0.6976 0.7073
vn -0.6309 -0.4991 0.5941
vn 0.6605 0.7289 -0.1803
vn -0.0359 0.9994 -0.0005
vn -0.0792 0.9968 0.0120
vn 0.6544 0.6922 -0.3042
vn 0.7049 0.7093 -0.0030
vn 0.0070 0.9999 -0.0103
vn 0.0128 0.9995 -0.0285
vn 0.7145 0.6994 -0.0198
vn 0.6912 0.7223 -0.0213
vn -0.0094 0.9996 -0.0250
vn -0.0205 0.9997 0.0101
vn 0.7011 0.7130 0.0027
vn 0.0251 0.9992 0.0327
vn -0.0089 0.9987 0.0500
vn -0.0085 1.0000 -0.0008
vn 0.0128 0.9999 0.0040
vn -0.0101 0.9999 0.0033
vn -0.0034 0.9997 -0.0228
vn -0.0161 0.9999 -0.0039
vn -0.0176 0.9998 -0.0070
vn -0.0133 0.9930 0.1176
vn -0.0238 0.9994 0.0261
vn 0.0495 0.9988 0.0040
vn 0.0623 0.9939 0.0910
vn 0.0256 0.9995 0.0170
vn 0.0187 0.9996 0.0225
vn 0.0058 0.9999 -0.0130
vn 0.0256 0.9994 -0.0212
vn -0.0134 0.9999 -0.0047
vn 0.0002 1.0000 0.0004
vn 0.0013 1.0000 -0.0002
vn 0.0100 0.9999 0.0009
vn 0.0121 0.9953 0.0964
vn -0.0025 0.9995 0.0320
vn 0.0192 0.9994 0.0279
vn 0.0114 0.9936 0.1120
vn 0.6928 0.7209 -0.0203
vn -0.0363 0.9974 -0.0616
vn 0.0592 0.9972 -0.0451
vn 0.0110 0.9997 -0.0233
vn 0.0567 0.9984 0.0028
vn -0.0130 0.9998 0.0145
vn 0.5490 0.6141 -0.5669
vn -0.0477 0.7012 -0.7114
vn 0.0577 0.6797 -0.7312
vn 0.0045 0.6927 -0.7212
vn 0.0486 0.6726 -0.7384
vn -0.0118 0.6971 -0.7169
vn 0.7019 0.7123 -0.0045
vn -0.0126 0.9997 -0.0202
vn 0.0222 0.9991 -0.0348
vn -0.0100 0.9997 -0.0230
vn 0.0113 0.9999 -0.0059
vn -0.0075 1.0000 -0.0005
vn 0.7185 0.6951 -0.0245
vn 0.0005 0.9998 -0.0222
vn -0.0134 0.9999 0.0022
vn 0.0156 0.9998 -0.0094
vn -0.0186 0.9998 -0.0075
vn 0.0161 0.9996 -0.0237
vn 0.0111 0.6538 -0.7566
vn 0.0059 0.9965 -0.0836
vn -0.0186 0.9998 -0.0061
vn -0.0183 0.9998 0.0019
vn 0.0014 0.9992 -0.0409
vn 0.0045 0.9999 -0.0135
vn -0.0080 0.9998 -0.0182
vn -0.0248 0.9997 -0.0019
vn -0.0318 0.9984 0.0474
vn -0.0314 0.9912 0.1285
vn 0.0135 0.6615 -0.7498
vn 0.0133 0.9997 -0.0208
vn 0.0081 0.9998 0.0172
vn 0.0077 1.0000 0.0063
vn 0.0001 0.9998 -0.0177
vn 0.0044 0.9998 -0.0218
vn 0.0131 0.9999 0.0043
vn 0.0125 0.9998 -0.0180
vn 0.0116 0.9993 0.0364
vn 0.0036 0.9848 0.1736
vn -0.0359 0.6815 -0.7310
vn -0.5916 0.5469 -0.5924
vn -0.7240 0.6896 -0.0177
vn -0.0404 0.9991 -0.0123
vn -0.0066 0.9999 0.0125
vn -0.7176 0.6965 -0.0064
vn 0.0240 0.9996 -0.0178
vn -0.7000 0.7139 -0.0197
vn -0.6860 0.7275 -0.0118
vn 0.0389 0.9992 -0.0109
vn -0.6785 0.7346 0.0019
vn 0.0454 0.9990 0.0037
vn 0.0409 0.9991 -0.0049
vn -0.6755 0.7374 0.0007
vn -0.7136 0.7000 -0.0286
vn 0.0313 0.9985 -0.0441
vn -0.7297 0.6835 0.0215
vn 0.0257 0.9996 -0.0063
vn 0.0240 0.9902 0.1373
vn -0.7499 0.6544 0.0967
vn 0.6239 0.7762 0.0909
vn -0.1033 0.9902 0.0943
vn -0.1615 0.9869 0.0024
vn 0.6199 0.7837 0.0378
vn 0.0935 0.9937 -0.0616
vn 0.0444 0.9987 0.0237
vn 0.0879 0.9751 -0.2036
vn 0.0887 0.9951 0.0427
vn -0.0805 0.9950 0.0599
vn -0.0900 0.9894 -0.1140
vn -0.1230 0.9876 0.0979
vn -0.0230 0.9969 0.0751
vn -0.0438 0.9855 0.1637
vn 0.0339 0.9934 0.1096
vn 0.0634 0.9884 0.1381
vn 0.0388 0.9933 0.1088
vn 0.0498 0.9942 0.0951
vn 0.0553 0.9982 0.0240
vn 0.0615 0.9945 0.0845
vn -0.7714 0.6102 0.1808
vn -0.6143 0.7795 0.1230
vn -0.1628 0.9826 -0.0889
vn 0.6056 0.7935 -0.0600
vn -0.0856 0.9960 0.0239
vn -0.0672 0.9695 0.2357
vn -0.0350 0.9705 0.2387
vn -0.1170 0.9826 0.1444
vn -0.0732 0.9900 0.1209
vn 0.0886 0.9856 0.1441
vn 0.0454 0.9865 0.1571
vn 0.0592 0.9833 0.1719
vn -0.6734 0.7280 0.1289
vn -0.1272 0.9919 -0.0036
vn 0.6439 0.7651 0.0029
vn -0.1956 0.9805 0.0202
vn -0.1172 0.9913 0.0593
vn 0.0722 0.9968 0.0328
vn -0.0480 0.9982 -0.0364
vn -0.0771 0.9940 -0.0773
vn 0.0137 0.9997 -0.0216
vn -0.0124 0.9957 0.0914
vn 0.0705 0.9911 0.1126
vn -0.6869 0.7231 0.0726
vn -0.1287 0.9914 0.0251
vn 0.6505 0.7594 0.0140
vn -0.1987 0.9801 0.0008
vn -0.0937 0.9936 -0.0635
vn 0.1148 0.9882 -0.1009
vn 0.0087 0.9919 -0.1264
vn -0.0683 0.9871 -0.1451
vn -0.0753 0.9892 -0.1260
vn -0.0600 0.9921 -0.1099
vn 0.0796 0.9917 -0.1013
vn -0.6861 0.7241 -0.0706
vn -0.1240 0.9916 -0.0355
vn 0.6529 0.7572 -0.0185
vn -0.1423 0.9874 -0.0688
vn -0.0616 0.9942 -0.0878
vn 0.0984 0.9931 -0.0643
vn 0.0163 0.9994 -0.0309
vn -0.1128 0.9934 0.0215
vn -0.0918 0.9940 0.0598
vn -0.0000 1.0000 -0.0000
vn 0.1063 0.9883 -0.1093
vn -0.6642 0.7404 -0.1031
vn -0.0892 0.9960 -0.0028
vn 0.6483 0.7613 0.0146
vn -0.0860 0.9947 -0.0564
vn -0.0773 0.9940 -0.0770
vn 0.0206 0.9997 -0.0125
vn -0.0177 0.9980 0.0604
vn -0.1605 0.9834 0.0847
vn -0.0992 0.9899 0.1012
vn 0.0881 0.9924 0.0864
vn 0.1759 0.9844 -0.0040
vn -0.6259 0.7793 -0.0309
vn -0.0559 0.9954 0.0774
vn 0.6732 0.7367 0.0641
vn -0.0144 0.9994 0.0326
vn -0.0921 0.9957 -0.0002
vn -0.0751 0.9964 0.0387
vn 0.0026 0.9993 0.0361
vn -0.1155 0.9919 -0.0528
vn -0.1341 0.9879 -0.0785
vn 0.0835 0.9962 -0.0266
vn 0.2167 0.9762 -0.0023
vn -0.6379 0.7701 -0.0049
vn -0.0497 0.9977 0.0466
vn 0.6760 0.7362 0.0320
vn 0.0358 0.9986 0.0389
vn -0.0907 0.9956 0.0232
vn -0.1170 0.9929 0.0229
vn 0.1030 0.9943 -0.0284
vn 0.0182 0.9873 -0.1579
vn -0.1953 0.9624 -0.1887
vn -0.0243 0.9959 -0.0877
vn 0.2179 0.9759 -0.0127
vn -0.6163 0.7875 -0.0079
vn -0.0497 0.9977 -0.0466
vn 0.6760 0.7362 -0.0320
vn 0.0455 0.9978 -0.0479
vn -0.0682 0.9957 -0.0631
vn -0.1022 0.9901 -0.0960
vn 0.1599 0.9804 -0.1148
vn 0.1140 0.9841 -0.1364
vn -0.2427 0.9602 -0.1384
vn -0.1469 0.9856 -0.0842
vn 0.2029 0.9791 -0.0159
vn -0.6201 0.7845 -0.0031
vn -0.0339 0.7311 0.6814
vn 0.5456 0.6327 0.5496
vn 0.0319 0.7321 0.6804
vn -0.0384 0.7670 0.6405
vn -0.0648 0.7560 0.6513
vn 0.1204 0.7313 0.6713
vn 0.0974 0.7499 0.6543
vn -0.1983 0.7442 0.6378
vn -0.1302 0.6402 0.7571
vn 0.1059 0.6932 0.7130
vn -0.5130 0.6482 0.5627
vt 0.010942 0.436914
vt 0.001128 0.465743
vt 0.068081 0.465744
vt 0.068081 0.436914
vt 0.010942 0.273818
vt 0.010942 0.328183
vt 0.068081 0.328183
vt 0.068081 0.273818
vt 0.010942 0.110722
vt 0.011019 0.165088
vt 0.068081 0.165088
vt 0.068081 0.110722
vt 0.353778 0.110722
vt 0.353778 0.165088
vt 0.410917 0.165088
vt 0.410917 0.110722
vt 0.353778 0.328183
vt 0.410917 0.328183
vt 0.410917 0.273818
vt 0.353778 0.273818
vt 0.353778 0.465744
vt 0.410917 0.465744
vt 0.410917 0.436914
vt 0.353778 0.436914
vt 0.182360 0.110722
vt 0.182360 0.165088
vt 0.239499 0.165088
vt 0.239499 0.110722
vt 0.182360 0.328183
vt 0.239499 0.328183
vt 0.239499 0.273818
vt 0.182360 0.273818
vt 0.182360 0.465744
vt 0.239499 0.465744
vt 0.239499 0.436914
vt 0.182360 0.436914
vt 0.010942 0.056357
vt 0.068081 0.056357
vt 0.182360 0.056357
vt 0.239499 0.056357
vt 0.353778 0.056357
vt 0.410917 0.056357
vt 0.010942 0.001992
vt 0.068081 0.001992
vt 0.182360 0.001992
vt 0.239499 0.001992
vt 0.353778 0.001992
vt 0.410917 0.001992
vt 0.010942 0.219453
vt 0.068081 0.219453
vt 0.239499 0.219453
vt 0.182360 0.219453
vt 0.410917 0.219453
vt 0.353778 0.219453
vt 0.010942 0.382548
vt 0.068081 0.382548
vt 0.239499 0.382548
vt 0.182360 0.382548
vt 0.410917 0.382548
vt 0.353778 0.382548
vt 0.125221 0.001992
vt 0.125221 0.056357
vt 0.125221 0.110722
vt 0.125221 0.165088
vt 0.125221 0.219453
vt 0.125221 0.273818
vt 0.125221 0.328183
vt 0.125221 0.382548
vt 0.125221 0.436914
vt 0.125221 0.465744
vt 0.296639 0.001992
vt 0.296639 0.056357
vt 0.296639 0.110722
vt 0.296639 0.165088
vt 0.296639 0.219453
vt 0.296639 0.273818
vt 0.296639 0.328183
vt 0.296639 0.382548
vt 0.296639 0.436914
vt 0.309916 0.465744
vt 0.468057 0.001992
vt 0.468057 0.056357
vt 0.564928 0.056357
vt 0.564928 0.001992
vt 0.468057 0.110722
vt 0.564928 0.110722
vt 0.468057 0.165088
vt 0.564928 0.165088
vt 0.564928 0.219453
vt 0.468057 0.219453
vt 0.564928 0.273818
vt 0.468057 0.273818
vt 0.468057 0.328183
vt 0.564928 0.328183
vt 0.564928 0.382548
vt 0.468057 0.382548
vt 0.564928 0.436914
vt 0.468057 0.436914
vt 0.468057 0.465744
vt 0.564928 0.465744
vt 0.001128 0.504371
vt 0.052592 0.533029
vt 0.104057 0.536821
vt 0.155522 0.520868
vt 0.206987 0.504137
vt 0.258451 0.504137
vt 0.309916 0.513441
vt 0.361381 0.504137
vt 0.412846 0.504137
vt 0.464311 0.504137
vt 0.555507 0.504137
vt 0.001128 0.559011
vt 0.052592 0.572084
vt 0.104057 0.559011
vt 0.155522 0.559011
vt 0.206987 0.559011
vt 0.258451 0.559011
vt 0.309916 0.559011
vt 0.361381 0.559011
vt 0.412846 0.559011
vt 0.464311 0.559011
vt 0.555507 0.559011
vt 0.001128 0.613886
vt 0.052592 0.613886
vt 0.104057 0.613886
vt 0.155522 0.613886
vt 0.206987 0.613886
vt 0.258451 0.613886
vt 0.309916 0.613886
vt 0.361381 0.613886
vt 0.412846 0.613886
vt 0.464311 0.613886
vt 0.555507 0.613886
vt 0.001128 0.668761
vt 0.052592 0.668761
vt 0.104057 0.668761
vt 0.155522 0.668761
vt 0.206987 0.668761
vt 0.258451 0.668761
vt 0.309916 0.668761
vt 0.361381 0.668761
vt 0.412846 0.668761
vt 0.464311 0.668761
vt 0.555507 0.668761
vt 0.001128 0.723635
vt 0.052592 0.723635
vt 0.104057 0.723635
vt 0.155522 0.723635
vt 0.206987 0.723635
vt 0.258451 0.723635
vt 0.309916 0.723635
vt 0.361381 0.723635
vt 0.412846 0.723635
vt 0.464311 0.723635
vt 0.555507 0.723635
vt 0.001128 0.778510
vt 0.052592 0.778510
vt 0.104057 0.778510
vt 0.155522 0.778510
vt 0.206987 0.778510
vt 0.258451 0.778510
vt 0.309916 0.778510
vt 0.361381 0.778510
vt 0.412846 0.778510
vt 0.464311 0.778510
vt 0.555507 0.778510
vt 0.001128 0.833384
vt 0.052592 0.833384
vt 0.104057 0.833384
vt 0.155522 0.833384
vt 0.206987 0.833384
vt 0.258451 0.833384
vt 0.309916 0.833384
vt 0.361381 0.833384
vt 0.412846 0.833384
vt 0.464311 0.833384
vt 0.555507 0.833384
vt 0.001128 0.888259
vt 0.052592 0.888259
vt 0.104057 0.888259
vt 0.155522 0.888259
vt 0.206987 0.888259
vt 0.258451 0.888259
vt 0.309916 0.888259
vt 0.361381 0.888259
vt 0.412846 0.888259
vt 0.464311 0.888259
vt 0.555507 0.888259
vt 0.001128 0.943133
vt 0.052592 0.943133
vt 0.104057 0.943133
vt 0.155522 0.943133
vt 0.206987 0.943133
vt 0.258451 0.943133
vt 0.309916 0.943133
vt 0.361381 0.943133
vt 0.412846 0.943133
vt 0.464311 0.943133
vt 0.555507 0.943133
vt 0.001128 0.998008
vt 0.052592 0.998008
vt 0.104057 0.998008
vt 0.155522 0.998008
vt 0.206987 0.998008
vt 0.258451 0.998008
vt 0.309916 0.998008
vt 0.361381 0.998008
vt 0.412846 0.998008
vt 0.464311 0.998008
vt 0.555507 0.998008
s 1
usemtl ground_tile
f 33/1/1 3/2/2 60/3/3 59/4/4
f 25/5/5 5/6/6 57/7/7 56/8/8
f 17/9/9 7/10/10 54/11/11 53/12/12
f 19/13/13 10/14/14 94/15/15 93/16/16
f 11/17/17 97/18/18 96/19/19 27/20/20
f 12/21/21 100/22/22 99/23/23 35/24/24
f 18/25/25 14/26/26 74/27/27 73/28/28
f 15/29/29 77/30/30 76/31/31 26/32/32
f 16/33/33 80/34/34 79/35/35 34/36/36
f 21/37/37 17/9/9 53/12/12 52/38/38
f 22/39/39 18/25/25 73/28/28 72/40/40
f 23/41/41 19/13/13 93/16/16 92/42/42
f 1/43/43 21/37/37 52/38/38 51/44/44
f 13/45/45 22/39/39 72/40/40 71/46/46
f 9/47/47 23/41/41 92/42/42 91/48/48
f 29/49/49 25/5/5 56/8/8 55/50/50
f 76/31/31 75/51/51 30/52/52 26/32/32
f 96/19/19 95/53/53 31/54/54 27/20/20
f 7/10/10 29/49/49 55/50/50 54/11/11
f 75/51/51 74/27/27 14/26/26 30/52/52
f 95/53/53 94/15/15 10/14/14 31/54/54
f 37/55/55 33/1/1 59/4/4 58/56/56
f 79/35/35 78/57/57 38/58/58 34/36/36
f 99/23/23 98/59/59 39/60/60 35/24/24
f 5/6/6 37/55/55 58/56/56 57/7/7
f 78/57/57 77/30/30 15/29/29 38/58/58
f 98/59/59 97/18/18 11/17/17 39/60/60
f 41/61/61 42/62/62 22/39/39 13/45/45
f 43/63/63 18/25/25 22/39/39 42/62/62
f 44/64/64 14/26/26 18/25/25 43/63/63
f 45/65/65 30/52/52 14/26/26 44/64/64
f 46/66/66 26/32/32 30/52/52 45/65/65
f 47/67/67 15/29/29 26/32/32 46/66/66
f 48/68/68 38/58/58 15/29/29 47/67/67
f 49/69/69 34/36/36 38/58/58 48/68/68
f 50/70/70 16/33/33 34/36/36 49/69/69
f 51/44/44 52/38/38 42/62/62 41/61/61
f 53/12/12 43/63/63 42/62/62 52/38/38
f 54/11/11 44/64/64 43/63/63 53/12/12
f 55/50/50 45/65/65 44/64/64 54/11/11
f 56/8/8 46/66/66 45/65/65 55/50/50
f 57/7/7 47/67/67 46/66/66 56/8/8
f 58/56/56 48/68/68 47/67/67 57/7/7
f 59/4/4 49/69/69 48/68/68 58/56/56
f 60/3/3 50/70/70 49/69/69 59/4/4
f 61/71/71 62/72/72 23/41/41 9/47/47
f 63/73/73 19/13/13 23/41/41 62/72/72
f 64/74/74 10/14/14 19/13/13 63/73/73
f 31/54/54 10/14/14 64/74/74 65/75/75
f 27/20/20 31/54/54 65/75/75 66/76/76
f 67/77/77 11/17/17 27/20/20 66/76/76
f 39/60/60 11/17/17 67/77/77 68/78/78
f 35/24/24 39/60/60 68/78/78 69/79/79
f 70/80/80 12/21/21 35/24/24 69/79/79
f 71/46/46 72/40/40 62/72/72 61/71/71
f 73/28/28 63/73/73 62/72/72 72/40/40
f 74/27/27 64/74/74 63/73/73 73/28/28
f 65/75/75 64/74/74 74/27/27 75/51/51
f 66/76/76 65/75/75 75/51/51 76/31/31
f 77/30/30 67/77/77 66/76/76 76/31/31
f 68/78/78 67/77/77 77/30/30 78/57/57
f 69/79/79 68/78/78 78/57/57 79/35/35
f 80/34/34 70/80/80 69/79/79 79/35/35
f 81/81/81 82/82/82 24/83/83 2/84/84
f 83/85/85 20/86/86 24/83/83 82/82/82
f 84/87/87 8/88/88 20/86/86 83/85/85
f 32/89/89 8/88/88 84/87/87 85/90/90
f 28/91/91 32/89/89 85/90/90 86/92/92
f 87/93/93 6/94/94 28/91/91 86/92/92
f 40/95/95 6/94/94 87/93/93 88/96/96
f 36/97/97 40/95/95 88/96/96 89/98/98
f 90/99/99 4/100/100 36/97/97 89/98/98
f 91/48/48 92/42/42 82/82/82 81/81/81
f 93/16/16 83/85/85 82/82/82 92/42/42
f 94/15/15 84/87/87 83/85/85 93/16/16
f 85/90/90 84/87/87 94/15/15 95/53/53
f 86/92/92 85/90/90 95/53/53 96/19/19
f 97/18/18 87/93/93 86/92/92 96/19/19
f 88/96/96 87/93/93 97/18/18 98/59/59
f 89/98/98 88/96/96 98/59/59 99/23/23
f 100/22/22 90/99/99 89/98/98 99/23/23
f 3/2/101 101/101/102 102/102/103 60/3/104
f 60/3/104 102/102/103 103/103/105 50/70/106
f 50/70/106 103/103/105 104/104/107 16/33/108
f 16/33/108 104/104/107 105/105/109
f 16/33/108 105/105/109 106/106/110 80/34/111
f 80/34/111 106/106/110 107/107/112 70/80/113
f 70/80/113 107/107/112 108/108/114 12/21/115
f 12/21/115 108/108/114 109/109/116 100/22/117
f 100/22/117 109/109/116 110/110/118 90/99/119
f 90/99/119 110/110/118 111/111/120 4/100/121
f 101/101/102 112/112/122 113/113/123 102/102/103
f 102/102/103 113/113/123 114/114/124 103/103/105
f 103/103/105 114/114/124 115/115/125 104/104/107
f 104/104/107 115/115/125 116/116/126 105/105/109
f 105/105/109 116/116/126 117/117/127 106/106/110
f 106/106/110 117/117/127 118/118/128 107/107/112
f 107/107/112 118/118/128 119/119/129 108/108/114
f 108/108/114 119/119/129 120/120/130 109/109/116
f 109/109/116 120/120/130 121/121/131 110/110/118
f 110/110/118 121/121/131 122/122/132 111/111/120
f 112/112/122 123/123/133 124/124/134 113/113/123
f 113/113/123 124/124/134 125/125/135 114/114/124
f 114/114/124 125/125/135 126/126/136 115/115/125
f 115/115/125 126/126/136 127/127/137 116/116/126
f 116/116/126 127/127/137 128/128/138 117/117/127
f 117/117/127 128/128/138 129/129/139 118/118/128
f 118/118/128 129/129/139 130/130/140 119/119/129
f 119/119/129 130/130/140 131/131/141 120/120/130
f 120/120/130 131/131/141 132/132/142 121/121/131
f 121/121/131 132/132/142 133/133/143 122/122/132
f 123/123/133 134/134/144 135/135/145 124/124/134
f 124/124/134 135/135/145 136/136/146 125/125/135
f 125/125/135 136/136/146 137/137/147 126/126/136
f 126/126/136 137/137/147 138/138/148 127/127/137
f 127/127/137 138/138/148 139/139/149 128/128/138
f 128/128/138 139/139/149 140/140/150 129/129/139
f 129/129/139 140/140/150 141/141/151 130/130/140
f 130/130/140 141/141/151 142/142/152 131/131/141
f 131/131/141 142/142/152 143/143/153 132/132/142
f 132/132/142 143/143/153 144/144/154 133/133/143
f 134/134/144 145/145/155 146/146/156 135/135/145
f 135/135/145 146/146/156 147/147/157 136/136/146
f 136/136/146 147/147/157 148/148/158 137/137/147
f 137/137/147 148/148/158 149/149/159 138/138/148
f 138/138/148 149/149/159 150/150/160 139/139/149
f 139/139/149 150/150/160 151/151/161 140/140/150
f 140/140/150 151/151/161 152/152/162 141/141/151
f 141/141/151 152/152/162 153/153/163 142/142/152
f 142/142/152 153/153/163 154/154/164 143/143/153
f 143/143/153 154/154/164 155/155/165 144/144/154
f 145/145/155 156/156/166 157/157/167 146/146/156
f 146/146/156 157/157/167 158/158/168 147/147/157
f 147/147/157 158/158/168 159/159/169 148/148/158
f 148/148/158 159/159/169 160/160/170 149/149/159
f 149/149/159 160/160/170 161/161/171 150/150/160
f 150/150/160 161/161/171 162/162/172 151/151/161
f 151/151/161 162/162/172 163/163/173 152/152/162
f 152/152/162 163/163/173 164/164/174 153/153/163
f 153/153/163 164/164/174 165/165/175 154/154/164
f 154/154/164 165/165/175 166/166/176 155/155/165
f 156/156/166 167/167/177 168/168/178 157/157/167
f 157/157/167 168/168/178 169/169/179 158/158/168
f 158/158/168 169/169/179 170/170/180 159/159/169
f 159/159/169 170/170/180 171/171/181 160/160/170
f 160/160/170 171/171/181 172/172/182 161/161/171
f 161/161/171 172/172/182 173/173/183 162/162/172
f 162/162/172 173/173/183 174/174/184 163/163/173
f 163/163/173 174/174/184 175/175/185 164/164/174
f 164/164/174 175/175/185 176/176/186 165/165/175
f 165/165/175 176/176/186 177/177/187 166/166/176
f 167/167/177 178/178/188 179/179/189 168/168/178
f 168/168/178 179/179/189 180/180/190 169/169/179
f 169/169/179 180/180/190 181/181/191 170/170/180
f 170/170/180 181/181/191 182/182/192 171/171/181
f 171/171/181 182/182/192 183/183/193 172/172/182
f 172/172/182 183/183/193 184/184/194 173/173/183
f 173/173/183 184/184/194 185/185/195 174/174/184
f 174/174/184 185/185/195 186/186/196 175/175/185
f 175/175/185 186/186/196 187/187/197 176/176/186
f 176/176/186 187/187/197 188/188/198 177/177/187
f 178/178/188 189/189/199 190/190/200 179/179/189
f 179/179/189 190/190/200 191/191/201 180/180/190
f 180/180/190 191/191/201 192/192/202 181/181/191
f 181/181/191 192/192/202 193/193/203 182/182/192
f 182/182/192 193/193/203 194/194/204 183/183/193
f 183/183/193 194/194/204 195/195/205 184/184/194
f 184/184/194 195/195/205 196/196/206 185/185/195
f 185/185/195 196/196/206 197/197/207 186/186/196
f 186/186/196 197/197/207 198/198/208 187/187/197
f 187/187/197 198/198/208 199/199/209 188/188/198
f 189/189/199 200/200/210 201/201/211 190/190/200
f 190/190/200 201/201/211 202/202/212 191/191/201
f 191/191/201 202/202/212 203/203/213 192/192/202
f 192/192/202 203/203/213 204/204/214 193/193/203
f 193/193/203 204/204/214 205/205/215 194/194/204
f 194/194/204 205/205/215 206/206/216 195/195/205
f 195/195/205 206/206/216 207/207/217 196/196/206
f 196/196/206 207/207/217 208/208/218 197/197/207
f 197/197/207 208/208/218 209/209/219 198/198/208
f 198/198/208 209/209/219 210/210/220 199/199/209
f 243/1/221 269/4/222 270/3/223 213/2/224
f 235/5/225 266/8/226 267/7/227 215/6/228
f 227/9/229 263/12/230 264/11/231 217/10/232
f 229/13/233 303/16/234 304/15/235 220/14/236
f 221/17/237 237/20/238 306/19/239 307/18/240
f 222/21/241 245/24/242 309/23/243 310/22/244
f 228/25/245 283/28/246 284/27/247 224/26/248
f 225/29/249 236/32/250 286/31/251 287/30/252
f 226/33/253 244/36/254 289/35/255 290/34/256
f 231/37/257 262/38/258 263/12/230 227/9/229
f 232/39/259 282/40/260 283/28/246 228/25/245
f 233/41/261 302/42/262 303/16/234 229/13/233
f 211/43/263 261/44/264 262/38/258 231/37/257
f 223/45/265 281/46/266 282/40/260 232/39/259
f 219/47/267 301/48/268 302/42/262 233/41/261
f 239/49/269 265/50/270 266/8/226 235/5/225
f 286/31/251 236/32/250 240/52/271 285/51/272
f 306/19/239 237/20/238 241/54/273 305/53/274
f 217/10/232 264/11/231 265/50/270 239/49/269
f 285/51/272 240/52/271 224/26/248 284/27/247
f 305/53/274 241/54/273 220/14/236 304/15/235
f 247/55/275 268/56/276 269/4/222 243/1/221
f 289/35/255 244/36/254 248/58/277 288/57/278
f 309/23/243 245/24/242 249/60/279 308/59/280
f 215/6/228 267/7/227 268/56/276 247/55/275
f 288/57/278 248/58/277 225/29/249 287/30/252
f 308/59/280 249/60/279 221/17/237 307/18/240
f 251/61/281 223/45/265 232/39/259 252/62/282
f 253/63/283 252/62/282 232/39/259 228/25/245
f 254/64/284 253/63/283 228/25/245 224/26/248
f 255/65/285 254/64/284 224/26/248 240/52/271
f 256/66/286 255/65/285 240/52/271 236/32/250
f 257/67/287 256/66/286 236/32/250 225/29/249
f 258/68/288 257/67/287 225/29/249 248/58/277
f 259/69/289 258/68/288 248/58/277 244/36/254
f 260/70/290 259/69/289 244/36/254 226/33/253
f 261/44/264 251/61/281 252/62/282 262/38/258
f 263/12/230 262/38/258 252/62/282 253/63/283
f 264/11/231 263/12/230 253/63/283 254/64/284
f 265/50/270 264/11/231 254/64/284 255/65/285
f 266/8/226 265/50/270 255/65/285 256/66/286
f 267/7/227 266/8/226 256/66/286 257/67/287
f 268/56/276 267/7/227 257/67/287 258/68/288
f 269/4/222 268/56/276 258/68/288 259/69/289
f 270/3/223 269/4/222 259/69/289 260/70/290
f 271/71/291 219/47/267 233/41/261 272/72/292
f 273/73/293 272/72/292 233/41/261 229/13/233
f 274/74/294 273/73/293 229/13/233 220/14/236
f 241/54/273 275/75/295 274/74/294 220/14/236
f 237/20/238 276/76/296 275/75/295 241/54/273
f 277/77/297 276/76/296 237/20/238 221/17/237
f 249/60/279 278/78/298 277/77/297 221/17/237
f 245/24/242 279/79/299 278/78/298 249/60/279
f 280/80/300 279/79/299 245/24/242 222/21/241
f 281/46/266 271/71/291 272/72/292 282/40/260
f 283/28/246 282/40/260 272/72/292 273/73/293
f 284/27/247 283/28/246 273/73/293 274/74/294
f 275/75/295 285/51/272 284/27/247 274/74/294
f 276/76/296 286/31/251 285/51/272 275/75/295
f 287/30/252 286/31/251 276/76/296 277/77/297
f 278/78/298 288/57/278 287/30/252 277/77/297
f 279/79/299 289/35/255 288/57/278 278/78/298
f 290/34/256 289/35/255 279/79/299 280/80/300
f 291/81/301 212/84/302 234/83/303 292/82/304
f 293/85/305 292/82/304 234/83/303 230/86/306
f 294/87/307 293/85/305 230/86/306 218/88/308
f 242/89/309 295/90/310 294/87/307 218/88/308
f 238/91/311 296/92/312 295/90/310 242/89/309
f 297/93/313 296/92/312 238/91/311 216/94/314
f 250/95/315 298/96/316 297/93/313 216/94/314
f 246/97/317 299/98/318 298/96/316 250/95/315
f 300/99/319 299/98/318 246/97/317 214/100/320
f 301/48/268 291/81/301 292/82/304 302/42/262
f 303/16/234 302/42/262 292/82/304 293/85/305
f 304/15/235 303/16/234 293/85/305 294/87/307
f 295/90/310 305/53/274 304/15/235 294/87/307
f 296/92/312 306/19/239 305/53/274 295/90/310
f 307/18/240 306/19/239 296/92/312 297/93/313
f 298/96/316 308/59/280 307/18/240 297/93/313
f 299/98/318 309/23/243 308/59/280 298/96/316
f 310/22/244 309/23/243 299/98/318 300/99/319
f 213/2/321 270/3/322 312/102/323 311/101/324
f 270/3/322 260/70/325 313/103/326 312/102/323
f 260/70/325 226/33/327 314/104/328 313/103/326
f 226/33/327 315/105/329 314/104/328
f 226/33/327 290/34/330 316/106/331 315/105/329
f 290/34/330 280/80/332 317/107/333 316/106/331
f 280/80/332 222/21/334 318/108/335 317/107/333
f 222/21/334 310/22/336 319/109/337 318/108/335
f 310/22/336 300/99/338 320/110/339 319/109/337
f 300/99/338 214/100/340 321/111/341 320/110/339
f 311/101/324 312/102/323 323/113/342 322/112/343
f 312/102/323 313/103/326 324/114/344 323/113/342
f 313/103/326 314/104/328 325/115/345 324/114/344
f 314/104/328 315/105/329 326/116/346 325/115/345
f 315/105/329 316/106/331 327/117/347 326/116/346
f 316/106/331 317/107/333 328/118/348 327/117/347
f 317/107/333 318/108/335 329/119/349 328/118/348
f 318/108/335 319/109/337 330/120/350 329/119/349
f 319/109/337 320/110/339 331/121/351 330/120/350
f 320/110/339 321/111/341 332/122/352 331/121/351
f 322/112/343 323/113/342 334/124/353 333/123/354
f 323/113/342 324/114/344 335/125/355 334/124/353
f 324/114/344 325/115/345 336/126/356 335/125/355
f 325/115/345 326/116/346 337/127/357 336/126/356
f 326/116/346 327/117/347 338/128/358 337/127/357
f 327/117/347 328/118/348 339/129/359 338/128/358
f 328/118/348 329/119/349 340/130/360 339/129/359
f 329/119/349 330/120/350 341/131/361 340/130/360
f 330/120/350 331/121/351 342/132/362 341/131/361
f 331/121/351 332/122/352 343/133/363 342/132/362
f 333/123/354 334/124/353 345/135/364 344/134/365
f 334/124/353 335/125/355 346/136/366 345/135/364
f 335/125/355 336/126/356 347/137/367 346/136/366
f 336/126/356 337/127/357 348/138/368 347/137/367
f 337/127/357 338/128/358 349/139/369 348/138/368
f 338/128/358 339/129/359 350/140/370 349/139/369
f 339/129/359 340/130/360 351/141/371 350/140/370
f 340/130/360 341/131/361 352/142/372 351/141/371
f 341/131/361 342/132/362 353/143/373 352/142/372
f 342/132/362 343/133/363 354/144/374 353/143/373
f 344/134/365 345/135/364 356/146/375 355/145/376
f 345/135/364 346/136/366 357/147/377 356/146/375
f 346/136/366 347/137/367 358/148/378 357/147/377
f 347/137/367 348/138/368 359/149/379 358/148/378
f 348/138/368 349/139/369 360/150/380 359/149/379
f 349/139/369 350/140/370 361/151/381 360/150/380
f 350/140/370 351/141/371 362/152/382 361/151/381
f 351/141/371 352/142/372 363/153/383 362/152/382
f 352/142/372 353/143/373 364/154/384 363/153/383
f 353/143/373 354/144/374 365/155/385 364/154/384
f 355/145/376 356/146/375 367/157/386 366/156/387
f 356/146/375 357/147/377 368/158/388 367/157/386
f 357/147/377 358/148/378 369/159/389 368/158/388
f 358/148/378 359/149/379 370/160/390 369/159/389
f 359/149/379 360/150/380 371/161/391 370/160/390
f 360/150/380 361/151/381 372/162/392 371/161/391
f 361/151/381 362/152/382 373/163/393 372/162/392
f 362/152/382 363/153/383 374/164/394 373/163/393
f 363/153/383 364/154/384 375/165/395 374/164/394
f 364/154/384 365/155/385 376/166/396 375/165/395
f 366/156/387 367/157/386 378/168/397 377/167/398
f 367/157/386 368/158/388 379/169/399 378/168/397
f 368/158/388 369/159/389 380/170/400 379/169/399
f 369/159/389 370/160/390 381/171/401 380/170/400
f 370/160/390 371/161/391 382/172/402 381/171/401
f 371/161/391 372/162/392 383/173/403 382/172/402
f 372/162/392 373/163/393 384/174/404 383/173/403
f 373/163/393 374/164/394 385/175/405 384/174/404
f 374/164/394 375/165/395 386/176/406 385/175/405
f 375/165/395 376/166/396 387/177/407 386/176/406
f 377/167/398 378/168/397 389/179/408 388/178/409
f 378/168/397 379/169/399 390/180/410 389/179/408
f 379/169/399 380/170/400 391/181/411 390/180/410
f 380/170/400 381/171/401 392/182/412 391/181/411
f 381/171/401 382/172/402 393/183/413 392/182/412
f 382/172/402 383/173/403 394/184/414 393/183/413
f 383/173/403 384/174/404 395/185/415 394/184/414
f 384/174/404 385/175/405 396/186/416 395/185/415
f 385/175/405 386/176/406 397/187/417 396/186/416
f 386/176/406 387/177/407 398/188/418 397/187/417
f 388/178/409 389/179/408 400/190/419 399/189/420
f 389/179/408 390/180/410 401/191/421 400/190/419
f 390/180/410 391/181/411 402/192/422 401/191/421
f 391/181/411 392/182/412 403/193/423 402/192/422
f 392/182/412 393/183/413 404/194/424 403/193/423
f 393/183/413 394/184/414 405/195/425 404/194/424
f 394/184/414 395/185/415 406/196/426 405/195/425
f 395/185/415 396/186/416 407/197/427 406/196/426
f 396/186/416 397/187/417 408/198/428 407/197/427
f 397/187/417 398/188/418 409/199/429 408/198/428
f 399/189/420 400/190/419 411/201/430 410/200/431
f 400/190/419 401/191/421 412/202/432 411/201/430
f 401/191/421 402/192/422 413/203/433 412/202/432
f 402/192/422 403/193/423 414/204/434 413/203/433
f 403/193/423 404/194/424 415/205/435 414/204/434
f 404/194/424 405/195/425 416/206/436 415/205/435
f 405/195/425 406/196/426 417/207/437 416/206/436
f 406/196/426 407/197/427 418/208/438 417/207/437
f 407/197/427 408/198/428 419/209/439 418/208/438
f 408/198/428 409/199/429 420/210/440 419/209/439
f 29/49/49 7/10/10 217/10/232 239/49/269
f 145/145/155 134/134/144 344/134/365 355/145/376
f 210/210/220 209/209/219 419/209/439 420/210/440
f 4/100/121 111/111/120 321/111/341 214/100/340
f 204/204/214 203/203/213 413/203/433 414/204/434
f 91/48/48 81/81/81 291/81/301 301/48/268
f 133/133/143 144/144/154 354/144/374 343/133/363
f 201/201/211 200/200/210 410/200/431 411/201/430
f 178/178/188 167/167/177 377/167/398 388/178/409
f 101/101/102 3/2/101 213/2/321 311/101/324
f 209/209/219 208/208/218 418/208/438 419/209/439
f 3/2/2 33/1/1 243/1/221 213/2/224
f 13/45/45 71/46/46 281/46/266 223/45/265
f 166/166/176 177/177/187 387/177/407 376/166/396
f 37/55/55 5/6/6 215/6/228 247/55/275
f 122/122/132 133/133/143 343/133/363 332/122/352
f 17/9/9 21/37/37 231/37/257 227/9/229
f 41/61/61 13/45/45 223/45/265 251/61/281
f 208/208/218 207/207/217 417/207/437 418/208/438
f 21/37/37 1/43/43 211/43/263 231/37/257
f 123/123/133 112/112/122 322/112/343 333/123/354
f 199/199/209 210/210/220 420/210/440 409/199/429
f 134/134/144 123/123/133 333/123/354 344/134/365
f 1/43/43 51/44/44 261/44/264 211/43/263
f 28/91/91 6/94/94 216/94/314 238/91/311
f 6/94/94 40/95/95 250/95/315 216/94/314
f 9/47/47 91/48/48 301/48/268 219/47/267
f 24/83/83 20/86/86 230/86/306 234/83/303
f 207/207/217 206/206/216 416/206/436 417/207/437
f 25/5/5 29/49/49 239/49/269 235/5/225
f 71/46/46 61/71/71 271/71/291 281/46/266
f 167/167/177 156/156/166 366/156/387 377/167/398
f 156/156/166 145/145/155 355/145/376 366/156/387
f 33/1/1 37/55/55 247/55/275 243/1/221
f 200/200/210 189/189/199 399/189/420 410/200/431
f 111/111/120 122/122/132 332/122/352 321/111/341
f 32/89/89 28/91/91 238/91/311 242/89/309
f 7/10/10 17/9/9 227/9/229 217/10/232
f 206/206/216 205/205/215 415/205/435 416/206/436
f 144/144/154 155/155/165 365/155/385 354/144/374
f 40/95/95 36/97/97 246/97/317 250/95/315
f 155/155/165 166/166/176 376/166/396 365/155/385
f 51/44/44 41/61/61 251/61/281 261/44/264
f 112/112/122 101/101/102 311/101/324 322/112/343
f 36/97/97 4/100/100 214/100/320 246/97/317
f 188/188/198 199/199/209 409/199/429 398/188/418
f 177/177/187 188/188/198 398/188/418 387/177/407
f 61/71/71 9/47/47 219/47/267 271/71/291
f 189/189/199 178/178/188 388/178/409 399/189/420
f 81/81/81 2/84/84 212/84/302 291/81/301
f 205/205/215 204/204/214 414/204/434 415/205/435
f 20/86/86 8/88/88 218/88/308 230/86/306
f 2/84/84 24/83/83 234/83/303 212/84/302
f 8/88/88 32/89/89 242/89/309 218/88/308
f 5/6/6 25/5/5 235/5/225 215/6/228
f 202/202/212 201/201/211 411/201/430 412/202/432
f 203/203/213 202/202/212 412/202/432 413/203/433
