# Blender 4.2.3 LTS
# www.blender.org
mtllib smallhole.mtl
o Abandoned_House.002
v -53.000031 0.000006 73.551857
v 67.653290 0.837719 73.551857
v -55.137520 -2.655073 -27.449148
v 67.653290 -0.398937 -27.449240
v -53.000031 0.000000 2.510220
v 67.653290 -1.747446 2.510220
v -52.983326 0.016603 38.031036
v 67.653290 -0.733522 38.031036
v 21.666695 0.027284 73.551857
v 21.666695 -0.727008 38.031036
v 21.666695 -0.367890 2.510220
v 21.666695 -0.000002 -27.449240
v -15.666668 1.165718 73.551857
v -15.666668 0.744376 38.031036
v -15.666668 -0.199966 2.510220
v -15.666668 0.384512 -27.449240
v -53.000031 -0.069460 49.871311
v -15.666668 0.996372 49.871311
v 21.666695 0.030749 49.871311
v 67.653290 0.000004 49.871311
v -53.000031 0.435643 61.711582
v -15.666668 0.435643 61.711582
v 21.666695 -1.449494 61.711582
v 67.653290 0.415370 61.711582
v -53.000031 0.000001 14.350492
v -15.666668 -0.091006 14.350492
v 21.666695 -0.448779 14.350492
v 67.653290 -1.699960 14.350492
v -53.000031 0.000002 26.190765
v -15.666668 -0.268741 26.190765
v 21.666695 0.111552 26.190765
v 67.653290 -1.397770 26.190765
v -53.000031 -0.895190 -21.170326
v -15.666668 -0.280700 -21.170326
v 21.666695 -0.367892 -21.170326
v 67.653290 -1.067502 -21.170326
v -53.000031 -0.307398 -9.330055
v -15.666668 -0.153056 -9.330055
v 21.666695 -0.367891 -9.330055
v 67.653290 -0.932240 -9.330055
v -28.111124 2.558630 73.551857
v -28.111124 1.268654 61.711582
v -28.111124 -0.684232 49.871311
v -28.111124 1.348042 38.031036
v -28.111124 -0.009825 26.190765
v -28.111124 -0.051532 14.350492
v -28.111124 -0.583462 2.510220
v -28.111124 -0.364013 -9.330055
v -28.111124 -0.245784 -21.170322
v -28.111124 0.817192 -27.449240
v -40.555580 1.165718 73.551857
v -40.555580 1.268654 61.711582
v -40.555580 -0.109082 49.871311
v -40.555580 0.251114 38.031036
v -40.555580 0.000002 26.190765
v -40.555580 0.000001 14.350492
v -40.555580 -0.199966 2.510220
v -40.555580 -1.041090 -9.330055
v -40.555580 -0.973137 -21.170322
v -40.555580 -0.508454 -27.449240
v 9.222239 0.955405 73.551857
v 9.222239 0.324998 61.711582
v 9.222239 0.324997 49.871311
v 9.222239 0.324996 38.031036
v 9.222239 0.661551 26.190765
v 9.222239 -0.534078 14.350492
v 9.222239 -0.367890 2.510220
v 9.222239 -0.367891 -9.330055
v 9.222239 -1.236857 -21.170322
v 12.113985 0.738854 -27.449268
v -3.222214 0.328078 73.551857
v -3.222214 -0.723982 61.711582
v -3.222214 -0.382445 49.871311
v -3.222214 0.187237 38.031036
v -3.222214 -0.536026 26.190765
v -3.222214 -0.056906 14.350492
v -3.222214 -0.064304 2.510220
v -3.222214 -0.064021 -9.330055
v -3.222214 -0.033863 -21.170322
v -3.222215 -0.000002 -27.449240
v 46.555607 0.080673 73.551857
v 46.555607 -0.661510 61.711582
v 46.555607 -0.300790 49.871311
v 46.555607 0.031448 38.031036
v 46.555607 -0.224770 26.190765
v 46.555607 0.215915 14.350492
v 46.555607 0.237225 2.510220
v 46.555607 -0.493330 -9.330055
v 46.555607 -2.343063 -21.170322
v 46.555607 -1.161768 -27.449240
v 34.111153 -0.875956 73.551857
v 34.111153 -1.438571 61.711582
v 34.111153 0.003424 49.871311
v 34.111153 0.232009 38.031036
v 34.111153 -0.111406 26.190765
v 34.111153 -0.022375 14.350492
v 34.111153 -0.285214 2.510220
v 34.111153 -0.037613 -9.330055
v 34.111153 -0.123396 -21.170322
v 34.111153 0.253669 -27.449240
v -55.137520 -2.678251 -35.862057
v -43.928936 1.513757 -42.103432
v -32.720352 0.965796 -42.929249
v -21.511766 -2.590184 -39.454941
v -10.303185 -2.456154 -35.810974
v 0.905398 -0.021440 -35.810974
v 12.113985 1.905620 -37.837425
v 23.322565 0.961832 -35.810974
v 34.531151 0.961832 -35.810974
v 45.739738 0.194474 -35.810974
v 65.601547 -2.070880 -35.810974
v -55.137520 -2.852869 -47.762184
v -43.928936 -0.558507 -50.609196
v -32.720352 1.022517 -47.762184
v -21.511766 0.958324 -47.762184
v -10.303185 1.487347 -47.762184
v 0.905398 1.952599 -47.762184
v 12.113985 4.649284 -47.762184
v 23.322565 3.544959 -47.762184
v 34.531151 0.889821 -47.762184
v 45.739738 1.809433 -47.762184
v 65.601547 -0.021441 -47.762184
v -55.137520 -2.793999 -59.713402
v -43.928936 -1.307343 -59.713402
v -32.720352 -0.448902 -59.713402
v -21.511766 4.685500 -59.713402
v -10.303185 4.116256 -59.713402
v 0.905398 2.180326 -59.713402
v 12.113985 4.649284 -59.713402
v 23.322565 4.573619 -59.713402
v 34.531151 4.586005 -59.713402
v 45.739738 4.649284 -59.713402
v 65.601547 1.952598 -59.713402
v -55.137520 -2.504714 -71.664612
v -43.928936 -0.713390 -71.664612
v -32.720352 0.652739 -71.664612
v -21.511766 3.827612 -71.664612
v -10.303185 1.919320 -71.664612
v 0.905398 1.326006 -71.664612
v 12.113985 2.011470 -71.664612
v 23.322565 1.952598 -71.664612
v 34.531151 4.649283 -71.664612
v 45.739738 4.649283 -71.664612
v 65.601547 1.952598 -71.664612
v -55.137520 -2.504715 -83.615822
v -43.928936 -0.713391 -83.615822
v -32.720352 0.487223 -83.615822
v -21.511766 2.310064 -83.615822
v -10.303185 1.802494 -83.615822
v 0.905398 -0.596637 -83.615822
v 12.113985 0.326714 -83.615822
v 23.322565 1.952597 -83.615822
v 34.531151 1.952597 -83.615822
v 45.739738 1.952597 -83.615822
v 65.601547 -0.021443 -83.615822
v -55.137520 -2.794002 -95.567039
v -43.928936 -1.592268 -95.567039
v -32.720352 -0.713392 -95.567039
v -21.511766 0.775043 -95.567039
v -10.303185 0.932292 -95.567039
v 0.905398 0.181919 -95.567039
v 12.113985 2.297737 -95.567039
v 23.322565 4.649281 -95.567039
v 34.531151 4.649281 -95.567039
v 45.739738 1.952596 -95.567039
v 65.601547 -2.070884 -95.567039
v -55.137520 -1.592269 -107.518242
v -43.928936 -0.713393 -107.518242
v -32.720352 -0.713393 -107.518242
v -21.511766 -0.713393 -107.518242
v -10.303185 1.648540 -107.518242
v 0.905398 1.530155 -107.518242
v 12.113985 2.011467 -107.518242
v 23.322565 4.649280 -107.518242
v 34.531151 4.717720 -107.518242
v 45.739738 2.068926 -107.518242
v 65.601547 -2.070884 -107.518242
v -55.137520 -0.713394 -119.469460
v -43.928936 0.487219 -119.469460
v -32.720352 0.487219 -119.469460
v -21.511766 -0.586522 -119.469460
v -10.303185 2.420725 -119.469460
v 0.905398 2.263667 -119.469460
v 12.113985 0.094886 -119.469460
v 23.322565 1.952595 -119.469460
v 34.531151 4.553371 -119.469460
v 45.739738 2.285545 -119.469460
v 65.601547 -2.720647 -119.469460
v -55.137520 -0.713395 -131.420670
v -43.928936 0.487218 -131.420670
v -32.720352 0.487218 -131.420670
v -21.511766 -0.586523 -131.420670
v -10.303185 2.420724 -131.420670
v 0.905398 2.072568 -131.420670
v 12.113985 -2.585788 -131.420670
v 23.322565 -1.921668 -131.420670
v 34.531151 3.703909 -131.420670
v 45.739738 2.227873 -131.420670
v 65.601547 -2.718016 -131.420670
v -55.137520 -1.592272 -143.371887
v -43.928936 -0.713396 -143.371887
v -32.720352 -0.713396 -143.371887
v -21.511766 -1.592272 -143.371887
v -10.303185 -0.389395 -143.371887
v 0.905398 -0.448266 -143.371887
v 12.113985 -2.852876 -143.371887
v 23.322565 -2.703659 -143.371887
v 34.531151 2.921918 -143.371887
v 45.739738 2.095645 -143.371887
v 65.601547 -2.718017 -143.371887
v -14.914831 1.124688 -99.856873
v -18.497223 0.890153 -99.743362
v -18.723839 0.255093 -104.459061
v -14.477352 1.063013 -105.156998
vn -0.0120 0.9987 -0.0497
vn -0.0359 0.9994 -0.0005
vn -0.0792 0.9968 0.0120
vn -0.0760 0.9931 -0.0895
vn 0.0040 1.0000 -0.0042
vn 0.0070 0.9999 -0.0103
vn 0.0128 0.9995 -0.0285
vn 0.0227 0.9993 -0.0284
vn -0.0198 0.9993 -0.0303
vn -0.0094 0.9996 -0.0250
vn -0.0205 0.9997 0.0101
vn -0.0086 1.0000 0.0038
vn 0.0251 0.9992 0.0327
vn -0.0089 0.9987 0.0500
vn -0.0085 1.0000 -0.0008
vn 0.0128 0.9999 0.0040
vn -0.0101 0.9999 0.0033
vn -0.0034 0.9997 -0.0228
vn -0.0161 0.9999 -0.0039
vn -0.0176 0.9998 -0.0070
vn -0.0133 0.9930 0.1176
vn -0.0238 0.9994 0.0261
vn 0.0495 0.9988 0.0040
vn 0.0618 0.9939 0.0908
vn 0.0256 0.9995 0.0170
vn 0.0187 0.9996 0.0225
vn 0.0058 0.9999 -0.0130
vn 0.0256 0.9994 -0.0212
vn -0.0134 0.9999 -0.0047
vn 0.0002 1.0000 0.0004
vn 0.0013 1.0000 -0.0002
vn 0.0100 0.9999 0.0009
vn 0.0122 0.9953 0.0966
vn -0.0025 0.9995 0.0320
vn 0.0192 0.9994 0.0279
vn 0.0114 0.9936 0.1120
vn -0.0560 0.9980 -0.0283
vn -0.0363 0.9974 -0.0616
vn 0.0592 0.9972 -0.0451
vn 0.0110 0.9997 -0.0233
vn 0.0567 0.9984 0.0028
vn -0.0130 0.9998 0.0145
vn -0.0800 0.9965 0.0227
vn -0.0680 0.9976 -0.0137
vn 0.0843 0.9932 -0.0798
vn 0.0064 0.9973 -0.0730
vn 0.0719 0.9936 -0.0870
vn -0.0169 0.9974 -0.0704
vn -0.0047 1.0000 -0.0056
vn -0.0126 0.9997 -0.0202
vn 0.0222 0.9991 -0.0348
vn -0.0100 0.9997 -0.0230
vn 0.0113 0.9999 -0.0059
vn -0.0075 1.0000 -0.0005
vn 0.0350 0.9988 -0.0352
vn 0.0005 0.9998 -0.0222
vn -0.0134 0.9999 0.0022
vn 0.0156 0.9998 -0.0094
vn -0.0186 0.9998 -0.0075
vn 0.0161 0.9996 -0.0237
vn 0.0165 0.9976 -0.0675
vn 0.0059 0.9965 -0.0836
vn -0.0188 0.9998 -0.0057
vn -0.0183 0.9998 0.0019
vn 0.0014 0.9992 -0.0409
vn 0.0045 0.9999 -0.0135
vn -0.0080 0.9998 -0.0182
vn -0.0248 0.9997 -0.0019
vn -0.0318 0.9984 0.0474
vn -0.0314 0.9912 0.1285
vn 0.0203 0.9966 -0.0797
vn 0.0133 0.9997 -0.0208
vn 0.0081 0.9998 0.0172
vn 0.0077 1.0000 0.0063
vn 0.0001 0.9998 -0.0177
vn 0.0044 0.9998 -0.0218
vn 0.0131 0.9999 0.0043
vn 0.0125 0.9998 -0.0180
vn 0.0116 0.9993 0.0364
vn 0.0036 0.9848 0.1735
vn -0.0530 0.9973 -0.0512
vn -0.0434 0.9979 -0.0491
vn -0.0380 0.9989 -0.0257
vn -0.0404 0.9991 -0.0123
vn -0.0066 0.9999 0.0125
vn -0.0108 0.9999 -0.0096
vn 0.0240 0.9996 -0.0178
vn 0.0285 0.9992 -0.0279
vn 0.0595 0.9981 -0.0165
vn 0.0389 0.9992 -0.0109
vn 0.0825 0.9966 0.0024
vn 0.0454 0.9990 0.0037
vn 0.0409 0.9991 -0.0049
vn 0.0747 0.9972 0.0012
vn 0.0188 0.9990 -0.0400
vn 0.0313 0.9985 -0.0441
vn -0.0297 0.9996 -0.0035
vn 0.0257 0.9996 -0.0063
vn 0.0240 0.9902 0.1373
vn -0.0477 0.9882 0.1456
vn -0.2108 0.9708 0.1149
vn -0.1033 0.9902 0.0943
vn -0.1615 0.9869 0.0024
vn -0.2425 0.9688 0.0518
vn 0.0935 0.9937 -0.0616
vn 0.0444 0.9987 0.0237
vn 0.0879 0.9751 -0.2036
vn 0.0887 0.9951 0.0427
vn -0.0805 0.9950 0.0599
vn -0.0900 0.9894 -0.1140
vn -0.1230 0.9876 0.0979
vn -0.0230 0.9969 0.0751
vn -0.0438 0.9855 0.1637
vn 0.0339 0.9934 0.1096
vn 0.0634 0.9884 0.1381
vn 0.0388 0.9933 0.1088
vn 0.0498 0.9942 0.0951
vn 0.0553 0.9982 0.0240
vn 0.0614 0.9945 0.0845
vn 0.0366 0.9990 -0.0251
vn 0.0726 0.9948 0.0720
vn -0.1628 0.9826 -0.0889
vn -0.2550 0.9641 -0.0740
vn -0.0856 0.9960 0.0239
vn -0.0672 0.9695 0.2357
vn -0.0350 0.9705 0.2387
vn -0.1170 0.9826 0.1445
vn -0.0732 0.9900 0.1209
vn 0.0885 0.9856 0.1442
vn 0.0454 0.9865 0.1571
vn 0.0592 0.9833 0.1719
vn 0.1062 0.9791 0.1733
vn -0.1272 0.9919 -0.0036
vn -0.1568 0.9876 0.0042
vn -0.1956 0.9805 0.0202
vn -0.1171 0.9913 0.0593
vn 0.0722 0.9968 0.0328
vn -0.0480 0.9982 -0.0364
vn -0.0772 0.9940 -0.0774
vn 0.0137 0.9997 -0.0216
vn -0.0124 0.9957 0.0913
vn 0.0705 0.9911 0.1126
vn 0.1232 0.9873 0.1001
vn -0.1287 0.9914 0.0251
vn -0.1512 0.9883 0.0183
vn -0.1987 0.9801 0.0008
vn -0.0937 0.9936 -0.0635
vn 0.1148 0.9882 -0.1009
vn 0.0087 0.9919 -0.1264
vn -0.0684 0.9871 -0.1447
vn -0.0753 0.9892 -0.1260
vn -0.0600 0.9921 -0.1099
vn 0.0796 0.9917 -0.1013
vn 0.1250 0.9874 -0.0971
vn -0.1240 0.9916 -0.0355
vn -0.1450 0.9891 -0.0242
vn -0.1423 0.9874 -0.0688
vn -0.0613 0.9942 -0.0878
vn 0.0984 0.9931 -0.0643
vn 0.0163 0.9994 -0.0309
vn -0.1127 0.9934 0.0215
vn -0.0918 0.9940 0.0598
vn -0.0000 1.0000 -0.0000
vn 0.1063 0.9883 -0.1093
vn 0.1320 0.9817 -0.1375
vn -0.0892 0.9960 -0.0028
vn -0.1125 0.9935 0.0189
vn -0.0860 0.9947 -0.0564
vn -0.0705 0.9951 -0.0698
vn 0.0274 0.9996 -0.0053
vn -0.0177 0.9980 0.0604
vn -0.1605 0.9834 0.0847
vn -0.0992 0.9899 0.1012
vn 0.0881 0.9924 0.0864
vn 0.1759 0.9844 -0.0040
vn 0.1758 0.9837 -0.0390
vn -0.0559 0.9954 0.0774
vn -0.0920 0.9920 0.0863
vn -0.0144 0.9994 0.0326
vn -0.1012 0.9948 -0.0085
vn -0.0781 0.9963 0.0365
vn -0.1498 0.9862 -0.0703
vn -0.1118 0.9930 -0.0376
vn -0.1407 0.9881 -0.0622
vn 0.0026 0.9993 0.0361
vn -0.1155 0.9919 -0.0528
vn -0.1340 0.9879 -0.0785
vn 0.0835 0.9962 -0.0266
vn 0.2167 0.9762 -0.0023
vn 0.2129 0.9771 -0.0065
vn -0.0497 0.9977 0.0466
vn -0.0993 0.9941 0.0433
vn 0.0358 0.9986 0.0389
vn -0.0907 0.9956 0.0232
vn -0.1169 0.9929 0.0230
vn 0.1030 0.9943 -0.0284
vn 0.0182 0.9873 -0.1578
vn -0.1953 0.9624 -0.1887
vn -0.0243 0.9959 -0.0877
vn 0.2179 0.9759 -0.0127
vn 0.2337 0.9722 -0.0099
vn -0.0497 0.9977 -0.0466
vn -0.0993 0.9941 -0.0433
vn 0.0455 0.9978 -0.0479
vn -0.0682 0.9957 -0.0631
vn -0.1020 0.9901 -0.0959
vn 0.1599 0.9804 -0.1148
vn 0.1140 0.9841 -0.1364
vn -0.2427 0.9602 -0.1384
vn -0.1469 0.9856 -0.0842
vn 0.2029 0.9791 -0.0159
vn 0.2408 0.9706 -0.0038
vn -0.0462 0.9946 -0.0932
vn -0.0920 0.9920 -0.0863
vn 0.0434 0.9945 -0.0958
vn -0.0496 0.9909 -0.1248
vn -0.0841 0.9788 -0.1870
vn 0.1640 0.9726 -0.1645
vn 0.1374 0.9873 -0.0792
vn -0.2575 0.9649 -0.0526
vn -0.1977 0.9789 -0.0509
vn 0.1906 0.9815 -0.0170
vn 0.2386 0.9711 -0.0054
vt 0.010942 0.436914
vt 0.068081 0.436914
vt 0.068081 0.465744
vt 0.001128 0.465743
vt 0.010942 0.273818
vt 0.068081 0.273818
vt 0.068081 0.328183
vt 0.010942 0.328183
vt 0.010942 0.110722
vt 0.068081 0.110722
vt 0.068081 0.165088
vt 0.011019 0.165088
vt 0.353778 0.110722
vt 0.410917 0.110722
vt 0.410917 0.165088
vt 0.353778 0.165088
vt 0.353778 0.328183
vt 0.353778 0.273818
vt 0.410917 0.273818
vt 0.410917 0.328183
vt 0.353778 0.465744
vt 0.353778 0.436914
vt 0.410917 0.436914
vt 0.410917 0.465744
vt 0.182360 0.110722
vt 0.239499 0.110722
vt 0.239499 0.165088
vt 0.182360 0.165088
vt 0.182360 0.328183
vt 0.182360 0.273818
vt 0.239499 0.273818
vt 0.239499 0.328183
vt 0.182360 0.465744
vt 0.182360 0.436914
vt 0.239499 0.436914
vt 0.239499 0.465744
vt 0.010942 0.056357
vt 0.068081 0.056357
vt 0.182360 0.056357
vt 0.239499 0.056357
vt 0.353778 0.056357
vt 0.410917 0.056357
vt 0.010942 0.001992
vt 0.068081 0.001992
vt 0.182360 0.001992
vt 0.239499 0.001992
vt 0.353778 0.001992
vt 0.410917 0.001992
vt 0.010942 0.219453
vt 0.068081 0.219453
vt 0.182360 0.219453
vt 0.239499 0.219453
vt 0.353778 0.219453
vt 0.410917 0.219453
vt 0.010942 0.382548
vt 0.068081 0.382548
vt 0.182360 0.382548
vt 0.239499 0.382548
vt 0.353778 0.382548
vt 0.410917 0.382548
vt 0.125221 0.001992
vt 0.125221 0.056357
vt 0.125221 0.110722
vt 0.125221 0.165088
vt 0.125221 0.219453
vt 0.125221 0.273818
vt 0.125221 0.328183
vt 0.125221 0.382548
vt 0.125221 0.436914
vt 0.125221 0.465744
vt 0.296639 0.001992
vt 0.296639 0.056357
vt 0.296639 0.110722
vt 0.296639 0.165088
vt 0.296639 0.219453
vt 0.296639 0.273818
vt 0.296639 0.328183
vt 0.296639 0.382548
vt 0.296639 0.436914
vt 0.309916 0.465744
vt 0.468057 0.001992
vt 0.564928 0.001992
vt 0.564928 0.056357
vt 0.468057 0.056357
vt 0.468057 0.110722
vt 0.564928 0.110722
vt 0.468057 0.165088
vt 0.564928 0.165088
vt 0.564928 0.219453
vt 0.468057 0.219453
vt 0.564928 0.273818
vt 0.468057 0.273818
vt 0.468057 0.328183
vt 0.564928 0.328183
vt 0.564928 0.382548
vt 0.468057 0.382548
vt 0.564928 0.436914
vt 0.468057 0.436914
vt 0.468057 0.465744
vt 0.564928 0.465744
vt 0.052592 0.533029
vt 0.001128 0.504371
vt 0.104057 0.536821
vt 0.155522 0.520868
vt 0.206987 0.504137
vt 0.258451 0.504137
vt 0.309916 0.513441
vt 0.361381 0.504137
vt 0.412846 0.504137
vt 0.464311 0.504137
vt 0.555507 0.504137
vt 0.052592 0.572084
vt 0.001128 0.559011
vt 0.104057 0.559011
vt 0.155522 0.559011
vt 0.206987 0.559011
vt 0.258451 0.559011
vt 0.309916 0.559011
vt 0.361381 0.559011
vt 0.412846 0.559011
vt 0.464311 0.559011
vt 0.555507 0.559011
vt 0.052592 0.613886
vt 0.001128 0.613886
vt 0.104057 0.613886
vt 0.155522 0.613886
vt 0.206987 0.613886
vt 0.258451 0.613886
vt 0.309916 0.613886
vt 0.361381 0.613886
vt 0.412846 0.613886
vt 0.464311 0.613886
vt 0.555507 0.613886
vt 0.052592 0.668761
vt 0.001128 0.668761
vt 0.104057 0.668761
vt 0.155522 0.668761
vt 0.206987 0.668761
vt 0.258451 0.668761
vt 0.309916 0.668761
vt 0.361381 0.668761
vt 0.412846 0.668761
vt 0.464311 0.668761
vt 0.555507 0.668761
vt 0.052592 0.723635
vt 0.001128 0.723635
vt 0.104057 0.723635
vt 0.155522 0.723635
vt 0.206987 0.723635
vt 0.258451 0.723635
vt 0.309916 0.723635
vt 0.361381 0.723635
vt 0.412846 0.723635
vt 0.464311 0.723635
vt 0.555507 0.723635
vt 0.052592 0.778510
vt 0.001128 0.778510
vt 0.104057 0.778510
vt 0.155522 0.778510
vt 0.206987 0.778510
vt 0.258451 0.778510
vt 0.309916 0.778510
vt 0.361381 0.778510
vt 0.412846 0.778510
vt 0.464311 0.778510
vt 0.555507 0.778510
vt 0.052592 0.833384
vt 0.001128 0.833384
vt 0.104057 0.833384
vt 0.155522 0.833384
vt 0.206987 0.833384
vt 0.187952 0.822505
vt 0.185982 0.798158
vt 0.169552 0.797631
vt 0.168405 0.819314
vt 0.258451 0.833384
vt 0.309916 0.833384
vt 0.361381 0.833384
vt 0.412846 0.833384
vt 0.464311 0.833384
vt 0.555507 0.833384
vt 0.052592 0.888259
vt 0.001128 0.888259
vt 0.104057 0.888259
vt 0.155522 0.888259
vt 0.206987 0.888259
vt 0.258451 0.888259
vt 0.309916 0.888259
vt 0.361381 0.888259
vt 0.412846 0.888259
vt 0.464311 0.888259
vt 0.555507 0.888259
vt 0.052592 0.943133
vt 0.001128 0.943133
vt 0.104057 0.943133
vt 0.155522 0.943133
vt 0.206987 0.943133
vt 0.258451 0.943133
vt 0.309916 0.943133
vt 0.361381 0.943133
vt 0.412846 0.943133
vt 0.464311 0.943133
vt 0.555507 0.943133
vt 0.052592 0.998008
vt 0.001128 0.998008
vt 0.104057 0.998008
vt 0.155522 0.998008
vt 0.206987 0.998008
vt 0.258451 0.998008
vt 0.309916 0.998008
vt 0.361381 0.998008
vt 0.412846 0.998008
vt 0.464311 0.998008
vt 0.555507 0.998008
s 1
usemtl ground_tile
f 33/1/1 59/2/2 60/3/3 3/4/4
f 25/5/5 56/6/6 57/7/7 5/8/8
f 17/9/9 53/10/10 54/11/11 7/12/12
f 19/13/13 93/14/14 94/15/15 10/16/16
f 11/17/17 27/18/18 96/19/19 97/20/20
f 12/21/21 35/22/22 99/23/23 100/24/24
f 18/25/25 73/26/26 74/27/27 14/28/28
f 15/29/29 26/30/30 76/31/31 77/32/32
f 16/33/33 34/34/34 79/35/35 80/36/36
f 21/37/37 52/38/38 53/10/10 17/9/9
f 22/39/39 72/40/40 73/26/26 18/25/25
f 23/41/41 92/42/42 93/14/14 19/13/13
f 1/43/43 51/44/44 52/38/38 21/37/37
f 13/45/45 71/46/46 72/40/40 22/39/39
f 9/47/47 91/48/48 92/42/42 23/41/41
f 29/49/49 55/50/50 56/6/6 25/5/5
f 76/31/31 26/30/30 30/51/51 75/52/52
f 96/19/19 27/18/18 31/53/53 95/54/54
f 7/12/12 54/11/11 55/50/50 29/49/49
f 75/52/52 30/51/51 14/28/28 74/27/27
f 95/54/54 31/53/53 10/16/16 94/15/15
f 37/55/55 58/56/56 59/2/2 33/1/1
f 79/35/35 34/34/34 38/57/57 78/58/58
f 99/23/23 35/22/22 39/59/59 98/60/60
f 5/8/8 57/7/7 58/56/56 37/55/55
f 78/58/58 38/57/57 15/29/29 77/32/32
f 98/60/60 39/59/59 11/17/17 97/20/20
f 41/61/61 13/45/45 22/39/39 42/62/62
f 43/63/63 42/62/62 22/39/39 18/25/25
f 44/64/64 43/63/63 18/25/25 14/28/28
f 45/65/65 44/64/64 14/28/28 30/51/51
f 46/66/66 45/65/65 30/51/51 26/30/30
f 47/67/67 46/66/66 26/30/30 15/29/29
f 48/68/68 47/67/67 15/29/29 38/57/57
f 49/69/69 48/68/68 38/57/57 34/34/34
f 50/70/70 49/69/69 34/34/34 16/33/33
f 51/44/44 41/61/61 42/62/62 52/38/38
f 53/10/10 52/38/38 42/62/62 43/63/63
f 54/11/11 53/10/10 43/63/63 44/64/64
f 55/50/50 54/11/11 44/64/64 45/65/65
f 56/6/6 55/50/50 45/65/65 46/66/66
f 57/7/7 56/6/6 46/66/66 47/67/67
f 58/56/56 57/7/7 47/67/67 48/68/68
f 59/2/2 58/56/56 48/68/68 49/69/69
f 60/3/3 59/2/2 49/69/69 50/70/70
f 61/71/71 9/47/47 23/41/41 62/72/72
f 63/73/73 62/72/72 23/41/41 19/13/13
f 64/74/74 63/73/73 19/13/13 10/16/16
f 31/53/53 65/75/75 64/74/74 10/16/16
f 27/18/18 66/76/76 65/75/75 31/53/53
f 67/77/77 66/76/76 27/18/18 11/17/17
f 39/59/59 68/78/78 67/77/77 11/17/17
f 35/22/22 69/79/79 68/78/78 39/59/59
f 70/80/80 69/79/79 35/22/22 12/21/21
f 71/46/46 61/71/71 62/72/72 72/40/40
f 73/26/26 72/40/40 62/72/72 63/73/73
f 74/27/27 73/26/26 63/73/73 64/74/74
f 65/75/75 75/52/52 74/27/27 64/74/74
f 66/76/76 76/31/31 75/52/52 65/75/75
f 77/32/32 76/31/31 66/76/76 67/77/77
f 68/78/78 78/58/58 77/32/32 67/77/77
f 69/79/79 79/35/35 78/58/58 68/78/78
f 80/36/36 79/35/35 69/79/79 70/80/80
f 81/81/81 2/82/82 24/83/83 82/84/84
f 83/85/85 82/84/84 24/83/83 20/86/86
f 84/87/87 83/85/85 20/86/86 8/88/88
f 32/89/89 85/90/90 84/87/87 8/88/88
f 28/91/91 86/92/92 85/90/90 32/89/89
f 87/93/93 86/92/92 28/91/91 6/94/94
f 40/95/95 88/96/96 87/93/93 6/94/94
f 36/97/97 89/98/98 88/96/96 40/95/95
f 90/99/99 89/98/98 36/97/97 4/100/100
f 91/48/48 81/81/81 82/84/84 92/42/42
f 93/14/14 92/42/42 82/84/84 83/85/85
f 94/15/15 93/14/14 83/85/85 84/87/87
f 85/90/90 95/54/54 94/15/15 84/87/87
f 86/92/92 96/19/19 95/54/54 85/90/90
f 97/20/20 96/19/19 86/92/92 87/93/93
f 88/96/96 98/60/60 97/20/20 87/93/93
f 89/98/98 99/23/23 98/60/60 88/96/96
f 100/24/24 99/23/23 89/98/98 90/99/99
f 3/4/101 60/3/102 102/101/103 101/102/104
f 60/3/102 50/70/105 103/103/106 102/101/103
f 50/70/105 16/33/107 104/104/108 103/103/106
f 16/33/107 105/105/109 104/104/108
f 16/33/107 80/36/110 106/106/111 105/105/109
f 80/36/110 70/80/112 107/107/113 106/106/111
f 70/80/112 12/21/114 108/108/115 107/107/113
f 12/21/114 100/24/116 109/109/117 108/108/115
f 100/24/116 90/99/118 110/110/119 109/109/117
f 90/99/118 4/100/120 111/111/121 110/110/119
f 101/102/104 102/101/103 113/112/122 112/113/123
f 102/101/103 103/103/106 114/114/124 113/112/122
f 103/103/106 104/104/108 115/115/125 114/114/124
f 104/104/108 105/105/109 116/116/126 115/115/125
f 105/105/109 106/106/111 117/117/127 116/116/126
f 106/106/111 107/107/113 118/118/128 117/117/127
f 107/107/113 108/108/115 119/119/129 118/118/128
f 108/108/115 109/109/117 120/120/130 119/119/129
f 109/109/117 110/110/119 121/121/131 120/120/130
f 110/110/119 111/111/121 122/122/132 121/121/131
f 112/113/123 113/112/122 124/123/133 123/124/134
f 113/112/122 114/114/124 125/125/135 124/123/133
f 114/114/124 115/115/125 126/126/136 125/125/135
f 115/115/125 116/116/126 127/127/137 126/126/136
f 116/116/126 117/117/127 128/128/138 127/127/137
f 117/117/127 118/118/128 129/129/139 128/128/138
f 118/118/128 119/119/129 130/130/140 129/129/139
f 119/119/129 120/120/130 131/131/141 130/130/140
f 120/120/130 121/121/131 132/132/142 131/131/141
f 121/121/131 122/122/132 133/133/143 132/132/142
f 123/124/134 124/123/133 135/134/144 134/135/145
f 124/123/133 125/125/135 136/136/146 135/134/144
f 125/125/135 126/126/136 137/137/147 136/136/146
f 126/126/136 127/127/137 138/138/148 137/137/147
f 127/127/137 128/128/138 139/139/149 138/138/148
f 128/128/138 129/129/139 140/140/150 139/139/149
f 129/129/139 130/130/140 141/141/151 140/140/150
f 130/130/140 131/131/141 142/142/152 141/141/151
f 131/131/141 132/132/142 143/143/153 142/142/152
f 132/132/142 133/133/143 144/144/154 143/143/153
f 134/135/145 135/134/144 146/145/155 145/146/156
f 135/134/144 136/136/146 147/147/157 146/145/155
f 136/136/146 137/137/147 148/148/158 147/147/157
f 137/137/147 138/138/148 149/149/159 148/148/158
f 138/138/148 139/139/149 150/150/160 149/149/159
f 139/139/149 140/140/150 151/151/161 150/150/160
f 140/140/150 141/141/151 152/152/162 151/151/161
f 141/141/151 142/142/152 153/153/163 152/152/162
f 142/142/152 143/143/153 154/154/164 153/153/163
f 143/143/153 144/144/154 155/155/165 154/154/164
f 145/146/156 146/145/155 157/156/166 156/157/167
f 146/145/155 147/147/157 158/158/168 157/156/166
f 147/147/157 148/148/158 159/159/169 158/158/168
f 148/148/158 149/149/159 160/160/170 159/159/169
f 149/149/159 150/150/160 161/161/171 160/160/170
f 150/150/160 151/151/161 162/162/172 161/161/171
f 151/151/161 152/152/162 163/163/173 162/162/172
f 152/152/162 153/153/163 164/164/174 163/163/173
f 153/153/163 154/154/164 165/165/175 164/164/174
f 154/154/164 155/155/165 166/166/176 165/165/175
f 156/157/167 157/156/166 168/167/177 167/168/178
f 157/156/166 158/158/168 169/169/179 168/167/177
f 158/158/168 159/159/169 170/170/180 169/169/179
f 159/159/169 160/160/170 171/171/181 214/172/182 211/173/183 212/174/183 213/175/184 170/170/180
f 160/160/170 161/161/171 172/176/185 171/171/181
f 161/161/171 162/162/172 173/177/186 172/176/185
f 162/162/172 163/163/173 174/178/187 173/177/186
f 163/163/173 164/164/174 175/179/188 174/178/187
f 164/164/174 165/165/175 176/180/189 175/179/188
f 165/165/175 166/166/176 177/181/190 176/180/189
f 167/168/178 168/167/177 179/182/191 178/183/192
f 168/167/177 169/169/179 180/184/193 179/182/191
f 169/169/179 170/170/180 181/185/194 180/184/193
f 170/170/180 171/171/181 182/186/195 181/185/194
f 171/171/181 172/176/185 183/187/196 182/186/195
f 172/176/185 173/177/186 184/188/197 183/187/196
f 173/177/186 174/178/187 185/189/198 184/188/197
f 174/178/187 175/179/188 186/190/199 185/189/198
f 175/179/188 176/180/189 187/191/200 186/190/199
f 176/180/189 177/181/190 188/192/201 187/191/200
f 178/183/192 179/182/191 190/193/202 189/194/203
f 179/182/191 180/184/193 191/195/204 190/193/202
f 180/184/193 181/185/194 192/196/205 191/195/204
f 181/185/194 182/186/195 193/197/206 192/196/205
f 182/186/195 183/187/196 194/198/207 193/197/206
f 183/187/196 184/188/197 195/199/208 194/198/207
f 184/188/197 185/189/198 196/200/209 195/199/208
f 185/189/198 186/190/199 197/201/210 196/200/209
f 186/190/199 187/191/200 198/202/211 197/201/210
f 187/191/200 188/192/201 199/203/212 198/202/211
f 189/194/203 190/193/202 201/204/213 200/205/214
f 190/193/202 191/195/204 202/206/215 201/204/213
f 191/195/204 192/196/205 203/207/216 202/206/215
f 192/196/205 193/197/206 204/208/217 203/207/216
f 193/197/206 194/198/207 205/209/218 204/208/217
f 194/198/207 195/199/208 206/210/219 205/209/218
f 195/199/208 196/200/209 207/211/220 206/210/219
f 196/200/209 197/201/210 208/212/221 207/211/220
f 197/201/210 198/202/211 209/213/222 208/212/221
f 198/202/211 199/203/212 210/214/223 209/213/222
f 170/170/180 213/175/184 214/172/182 171/171/181
